<?xml version="1.0" encoding="UTF-8" standalone="no"?>
<!-- Created with Inkscape (http://www.inkscape.org/) -->

<svg
   width="251.29068mm"
   height="120.41432mm"
   viewBox="0 0 251.29068 120.41432"
   version="1.1"
   id="svg1"
   xml:space="preserve"
   xmlns="http://www.w3.org/2000/svg"
   xmlns:svg="http://www.w3.org/2000/svg"><defs
     id="defs1"><style
       id="style1">.cls-1{fill:#76a5a2;}.cls-2{fill:#568684;}</style><style
       id="style1-4">.cls-1{fill:#568684;}.cls-2{fill:#76a5a2;}</style><style
       id="style1-0">.cls-1{fill:#76a5a2;}.cls-2{fill:#568684;}</style><style
       id="style1-42">.cls-1{fill:#76a5a2;}.cls-2{fill:#568684;}</style><style
       id="style1-2">.cls-1{fill:#76a5a2;}.cls-2{fill:#568684;}</style></defs><g
     id="layer1"
     transform="translate(19.501673,-35.963868)"><g
       id="g3"
       transform="matrix(0.26458333,0,0,0.26458333,-26.147992,-28.570653)"><path
         class="cls-1"
         d="M 427,335.87 V 328 h 14.43 v 7.86 z m 6.28,54.77 v -62 h 8.15 v 62 z"
         id="path1-0" /><path
         class="cls-1"
         d="m 459.25,338.47 7.37,-9.34 h 8.44 l -7.9,9.34 z m 0,52.17 v -45.32 h 8.15 v 45.32 z M 452,353.18 v -7.86 h 14.43 v 7.86 z"
         id="path2-6" /><path
         class="cls-1"
         d="m 483.18,390.64 v -45.32 h 6.45 v 19.43 h -1 a 30.89,30.89 0 0 1 1.82,-11.33 14.41,14.41 0 0 1 5.56,-7 17,17 0 0 1 9.42,-2.42 h 0.34 q 8.57,0 12.69,5.35 4.12,5.35 4.12,15.44 v 25.89 h -8.15 v -27.62 a 11.89,11.89 0 0 0 -3,-8.45 10.61,10.61 0 0 0 -8.15,-3.18 11.7,11.7 0 0 0 -8.66,3.31 11.9,11.9 0 0 0 -3.31,8.82 v 27.08 z"
         id="path3-1" /><path
         class="cls-1"
         d="m 539.71,390.64 v -45.32 h 8.15 v 45.32 z M 543.78,338 v 0 a 4.67,4.67 0 0 1 -4.65,-4.65 v 0 a 4.67,4.67 0 0 1 4.65,-4.66 v 0 a 4.68,4.68 0 0 1 4.66,4.66 v 0 a 4.68,4.68 0 0 1 -4.66,4.65 z m -11.29,15.19 v -7.86 h 14.44 v 7.86 z"
         id="path4-3" /><path
         class="cls-1"
         d="m 583.08,392.16 a 23.34,23.34 0 0 1 -10.14,-2 20.09,20.09 0 0 1 -7.09,-5.48 24,24 0 0 1 -4.2,-7.59 25.77,25.77 0 0 1 -1.4,-8.32 v -1.53 a 26.33,26.33 0 0 1 1.4,-8.49 22.5,22.5 0 0 1 4.24,-7.5 21.18,21.18 0 0 1 7.09,-5.4 22.83,22.83 0 0 1 9.93,-2 24,24 0 0 1 10.23,2.12 18.4,18.4 0 0 1 7.29,6 17.32,17.32 0 0 1 3.1,9.13 h -7.81 a 11.07,11.07 0 0 0 -3.9,-7.09 c -2.21,-1.9 -5.18,-2.84 -8.91,-2.84 a 13.94,13.94 0 0 0 -8.06,2.2 13.39,13.39 0 0 0 -4.84,6 23.75,23.75 0 0 0 0,17.19 13.56,13.56 0 0 0 4.88,6.11 14.12,14.12 0 0 0 8.19,2.25 15,15 0 0 0 6.62,-1.36 12.14,12.14 0 0 0 4.5,-3.65 10.57,10.57 0 0 0 2,-5.18 h 7.8 a 16.63,16.63 0 0 1 -3.1,9.25 18.94,18.94 0 0 1 -7.47,6.07 24.23,24.23 0 0 1 -10.35,2.11 z"
         id="path5-8" /><path
         class="cls-1"
         d="m 627.64,391.82 a 20.6,20.6 0 0 1 -8.79,-1.73 12.91,12.91 0 0 1 -5.69,-5 15.29,15.29 0 0 1 -2,-8 14.16,14.16 0 0 1 2.16,-8.06 13.23,13.23 0 0 1 6.33,-4.88 26.93,26.93 0 0 1 10,-1.66 H 642 v 6.11 h -12.67 q -4.92,0 -7.55,2.38 a 7.83,7.83 0 0 0 -2.63,6.11 7.56,7.56 0 0 0 2.63,6 q 2.63,2.3 7.55,2.29 a 14.58,14.58 0 0 0 5.52,-1.06 9.62,9.62 0 0 0 4.37,-3.56 12.83,12.83 0 0 0 1.91,-6.92 l 2.21,3.23 a 19.37,19.37 0 0 1 -2.34,8.1 12.48,12.48 0 0 1 -5.26,5 17.82,17.82 0 0 1 -8.1,1.65 z m 14.85,-1.18 v -13.58 h -1.36 v -15.7 q 0,-4.67 -2.42,-7.05 c -1.61,-1.58 -4,-2.37 -7.09,-2.37 -1.75,0 -3.56,0 -5.43,0.08 l -5.34,0.17 c -1.7,0.06 -3.17,0.14 -4.42,0.26 v -7.13 c 1.25,-0.12 2.56,-0.22 4,-0.3 1.44,-0.08 2.81,-0.14 4.28,-0.17 1.47,-0.03 2.89,0 4.25,0 a 32.94,32.94 0 0 1 11.37,1.65 12.1,12.1 0 0 1 6.53,5.39 q 2.13,3.73 2.13,10.1 v 28.69 z"
         id="path6-9" /><path
         class="cls-2"
         d="m 367.46,498.77 v -62.64 h 8.32 v 62.64 z m 6.63,0 v -7.64 h 15.44 a 25.76,25.76 0 0 0 10,-1.82 22,22 0 0 0 7.47,-5.05 21.73,21.73 0 0 0 4.72,-7.56 26.62,26.62 0 0 0 1.61,-9.33 27.06,27.06 0 0 0 -1.61,-9.55 21.35,21.35 0 0 0 -4.72,-7.47 20.67,20.67 0 0 0 -7.47,-4.88 27.38,27.38 0 0 0 -10,-1.7 h -15.44 v -7.64 h 14.59 a 37.78,37.78 0 0 1 14.6,2.59 29.68,29.68 0 0 1 10.31,7 29.25,29.25 0 0 1 6.16,9.76 31.08,31.08 0 0 1 2,11 v 1.87 a 30.92,30.92 0 0 1 -2,10.86 29.52,29.52 0 0 1 -6.16,9.85 30.38,30.38 0 0 1 -10.31,7.09 36.66,36.66 0 0 1 -14.6,2.67 z"
         id="path7-3" /><path
         class="cls-2"
         d="m 433.41,498.43 v -45.32 h 6.45 v 18.67 h -0.34 q 0,-9.93 4.37,-14.56 c 2.91,-3.08 7.29,-4.62 13.11,-4.62 h 1.53 v 7.3 h -2.88 q -6.79,0 -10.44,3.6 -3.65,3.6 -3.65,10.4 v 24.53 z"
         id="path8-4" /><path
         class="cls-2"
         d="m 480.6,499.62 a 20.45,20.45 0 0 1 -8.79,-1.74 12.91,12.91 0 0 1 -5.69,-5.05 15.29,15.29 0 0 1 -2,-8 14.08,14.08 0 0 1 2.17,-8.06 13.17,13.17 0 0 1 6.32,-4.88 26.93,26.93 0 0 1 10,-1.66 h 12.31 v 6.11 h -12.63 q -4.92,0 -7.55,2.38 a 7.86,7.86 0 0 0 -2.63,6.11 7.59,7.59 0 0 0 2.63,6 q 2.63,2.29 7.55,2.3 a 14.77,14.77 0 0 0 5.52,-1.06 9.71,9.71 0 0 0 4.37,-3.57 12.83,12.83 0 0 0 1.91,-6.92 l 2.21,3.23 a 19.32,19.32 0 0 1 -2.3,8.19 12.52,12.52 0 0 1 -5.26,5 17.78,17.78 0 0 1 -8.14,1.62 z m 14.85,-1.19 v -13.58 h -1.36 v -15.7 q 0,-4.66 -2.42,-7 -2.42,-2.34 -7.08,-2.37 c -1.76,0 -3.57,0 -5.44,0.08 l -5.34,0.17 c -1.7,0.06 -3.17,0.15 -4.42,0.26 v -7.13 c 1.25,-0.12 2.56,-0.22 3.95,-0.3 1.39,-0.08 2.81,-0.14 4.29,-0.17 1.48,-0.03 2.88,0 4.24,0 a 32.94,32.94 0 0 1 11.37,1.65 12.16,12.16 0 0 1 6.54,5.39 q 2.12,3.74 2.12,10.1 v 28.69 z"
         id="path9-4" /><path
         class="cls-2"
         d="m 515.22,498.43 v -10.36 h 9.85 v 10.36 z"
         id="path10-6" /><path
         class="cls-2"
         d="m 553,498.43 22.32,-62 h 14.08 l 23,62 h -8.57 L 583,441.9 l 4.07,2 h -10 l 4.33,-2 -20.11,56.53 z m 13.33,-18.5 2.8,-7.47 h 26.73 l 2.8,7.47 z"
         id="path11-0" /><path
         class="cls-2"
         d="m 665.62,500 a 23.85,23.85 0 0 1 -10.27,-2 19.61,19.61 0 0 1 -7.05,-5.39 22.83,22.83 0 0 1 -4,-7.51 27.87,27.87 0 0 1 -1.31,-8.49 V 475 a 28.16,28.16 0 0 1 1.31,-8.58 22.83,22.83 0 0 1 4,-7.51 19.6,19.6 0 0 1 6.92,-5.35 23,23 0 0 1 9.89,-2 q 7.38,0 12.18,3.18 a 19.64,19.64 0 0 1 7.12,8.19 25,25 0 0 1 2.34,10.7 v 3.65 h -40.23 v -6.12 h 34.29 l -1.87,3.31 a 20.9,20.9 0 0 0 -1.53,-8.36 12,12 0 0 0 -4.58,-5.47 14.11,14.11 0 0 0 -7.72,-2 13.67,13.67 0 0 0 -8,2.21 13.27,13.27 0 0 0 -4.76,6 25.25,25.25 0 0 0 0,17.53 13.3,13.3 0 0 0 4.88,6.11 16.95,16.95 0 0 0 17.1,-0.13 9.23,9.23 0 0 0 4,-5.52 H 686 a 17.66,17.66 0 0 1 -10.77,13.24 24.54,24.54 0 0 1 -9.61,1.92 z"
         id="path12-6" /><path
         class="cls-2"
         d="m 692.69,498.43 16.21,-23.85 -0.26,1.7 -15.19,-23.17 h 9 l 10.95,17.06 h 1.18 l 10.36,-17.06 h 8.4 l -14.34,22.57 0.25,-1.52 17,24.27 h -9 L 714.5,480 h -1.19 l -12.22,18.42 z"
         id="path13-6" /><path
         class="cls-2"
         d="m 757.36,499.62 a 20.48,20.48 0 0 1 -8.79,-1.74 12.88,12.88 0 0 1 -5.68,-5.05 15.2,15.2 0 0 1 -2,-8 14.16,14.16 0 0 1 2.16,-8.06 13.22,13.22 0 0 1 6.32,-4.88 27,27 0 0 1 10,-1.66 h 12.3 v 6.11 h -12.61 q -4.92,0 -7.56,2.38 a 7.86,7.86 0 0 0 -2.63,6.11 7.59,7.59 0 0 0 2.63,6 q 2.64,2.29 7.56,2.3 a 14.72,14.72 0 0 0 5.51,-1.06 9.68,9.68 0 0 0 4.38,-3.57 12.83,12.83 0 0 0 1.9,-6.92 l 2.21,3.23 a 19.31,19.31 0 0 1 -2.33,8.11 12.6,12.6 0 0 1 -5.27,5 17.75,17.75 0 0 1 -8.1,1.7 z m 14.85,-1.19 v -13.58 h -1.36 v -15.7 q 0,-4.66 -2.41,-7 -2.41,-2.34 -7.09,-2.37 c -1.76,0 -3.56,0 -5.43,0.08 l -5.35,0.17 c -1.7,0.06 -3.17,0.15 -4.41,0.26 v -7.13 c 1.24,-0.12 2.56,-0.22 3.94,-0.3 1.38,-0.08 2.82,-0.14 4.29,-0.17 1.47,-0.03 2.89,0 4.24,0 a 33,33 0 0 1 11.37,1.56 12.1,12.1 0 0 1 6.53,5.39 q 2.13,3.74 2.12,10.1 v 28.69 z"
         id="path14-1" /><path
         class="cls-2"
         d="m 793.6,498.43 v -45.32 h 6.45 v 19.43 h -1 a 30.91,30.91 0 0 1 1.83,-11.33 14.33,14.33 0 0 1 5.55,-7 17,17 0 0 1 9.43,-2.42 h 0.34 q 8.57,0 12.68,5.35 4.11,5.35 4.12,15.4 v 25.89 h -8.15 v -27.58 a 11.89,11.89 0 0 0 -3,-8.45 10.6,10.6 0 0 0 -8.15,-3.18 11.68,11.68 0 0 0 -8.65,3.31 11.91,11.91 0 0 0 -3.31,8.83 v 27.07 z"
         id="path15-8" /><path
         class="cls-2"
         d="m 866.84,500 a 22,22 0 0 1 -8.91,-1.79 21.2,21.2 0 0 1 -7.09,-5 23,23 0 0 1 -4.66,-7.47 24.9,24.9 0 0 1 -1.66,-9.17 V 475 a 25.28,25.28 0 0 1 1.62,-9.09 23.08,23.08 0 0 1 4.54,-7.47 20.82,20.82 0 0 1 7,-5 21.38,21.38 0 0 1 9,-1.83 20.47,20.47 0 0 1 9.42,2.16 17.13,17.13 0 0 1 7,6.75 q 2.71,4.59 3.06,11.88 l -3.4,-5.43 v -30.5 h 8.15 v 62 h -6.45 v -20.16 h 2.37 q -0.33,7.72 -3.22,12.52 a 17.64,17.64 0 0 1 -7.26,7 20.88,20.88 0 0 1 -9.51,2.17 z m 1.11,-7.13 a 15.37,15.37 0 0 0 7.55,-1.87 14,14 0 0 0 5.43,-5.39 16.23,16.23 0 0 0 2,-8.27 v -3.91 a 14.5,14.5 0 0 0 -2.08,-7.93 13.87,13.87 0 0 0 -5.52,-5 16.37,16.37 0 0 0 -7.51,-1.74 14.81,14.81 0 0 0 -7.93,2.12 14.29,14.29 0 0 0 -5.35,5.94 22,22 0 0 0 0,18 14.22,14.22 0 0 0 5.43,5.94 15.06,15.06 0 0 0 8.03,2.07 z"
         id="path16-49" /><path
         class="cls-2"
         d="m 906.39,498.43 v -45.32 h 6.45 v 18.67 h -0.34 q 0,-9.93 4.38,-14.56 4.38,-4.63 13.12,-4.62 h 1.53 v 7.3 h -2.89 q -6.79,0 -10.44,3.6 -3.65,3.6 -3.65,10.4 v 24.53 z"
         id="path17-6" /><path
         class="cls-2"
         d="m 953.58,499.62 a 20.4,20.4 0 0 1 -8.78,-1.74 12.86,12.86 0 0 1 -5.69,-5.05 15.2,15.2 0 0 1 -2,-8 14.16,14.16 0 0 1 2.16,-8.06 13.22,13.22 0 0 1 6.32,-4.88 27,27 0 0 1 10,-1.66 h 12.3 v 6.11 h -12.61 q -4.92,0 -7.56,2.38 a 7.86,7.86 0 0 0 -2.63,6.11 7.59,7.59 0 0 0 2.63,6 q 2.64,2.29 7.56,2.3 a 14.72,14.72 0 0 0 5.51,-1.06 9.68,9.68 0 0 0 4.38,-3.57 12.83,12.83 0 0 0 1.9,-6.92 l 2.21,3.23 A 19.31,19.31 0 0 1 967,493 a 12.6,12.6 0 0 1 -5.27,5 17.75,17.75 0 0 1 -8.15,1.62 z m 14.85,-1.19 v -13.58 h -1.36 v -15.7 q 0,-4.66 -2.41,-7 -2.41,-2.34 -7.09,-2.37 c -1.76,0 -3.56,0 -5.43,0.08 l -5.35,0.17 c -1.7,0.06 -3.17,0.15 -4.41,0.26 v -7.13 c 1.24,-0.12 2.56,-0.22 3.94,-0.3 1.38,-0.08 2.82,-0.14 4.29,-0.17 1.47,-0.03 2.89,0 4.24,0 a 33,33 0 0 1 11.38,1.65 12.1,12.1 0 0 1 6.53,5.39 q 2.13,3.74 2.12,10.1 v 28.69 z"
         id="path18-37" /><path
         class="cls-2"
         d="m 616.3,444.34 v -7.87 h 14.44 v 7.87 z m 6.29,54.09 v -62 h 8.15 v 62 z"
         id="path19-8" /><path
         class="cls-2"
         d="m 389.73,608.33 -21.47,-62 h 8.57 l 19.27,56.57 -4.08,-2 h 10.19 l -4.33,2 17.74,-56.53 h 8.32 l -19.95,62 z"
         id="path20-8" /><path
         class="cls-2"
         d="m 445,609.52 a 20.45,20.45 0 0 1 -8.79,-1.74 12.85,12.85 0 0 1 -5.69,-5 15.17,15.17 0 0 1 -2,-8 14.18,14.18 0 0 1 2.16,-8.06 13.25,13.25 0 0 1 6.33,-4.88 27.14,27.14 0 0 1 10,-1.65 h 12.31 v 6.1 h -12.64 c -3.28,0 -5.8,0.8 -7.55,2.38 a 7.85,7.85 0 0 0 -2.63,6.11 7.6,7.6 0 0 0 2.63,6 q 2.63,2.29 7.55,2.29 a 14.58,14.58 0 0 0 5.52,-1.07 9.75,9.75 0 0 0 4.37,-3.56 12.86,12.86 0 0 0 1.91,-6.92 l 2.21,3.22 a 19.42,19.42 0 0 1 -2.34,8.11 12.46,12.46 0 0 1 -5.26,5 17.81,17.81 0 0 1 -8.09,1.67 z m 14.85,-1.19 v -13.58 h -1.36 v -15.7 q 0,-4.66 -2.42,-7 c -1.61,-1.59 -4,-2.38 -7.09,-2.38 -1.75,0 -3.56,0 -5.43,0.08 l -5.34,0.18 c -1.7,0.05 -3.18,0.14 -4.42,0.25 V 563 c 1.24,-0.11 2.56,-0.21 4,-0.3 1.44,-0.09 2.81,-0.14 4.28,-0.17 1.47,-0.03 2.89,0 4.25,0 a 32.68,32.68 0 0 1 11.37,1.66 12.06,12.06 0 0 1 6.53,5.39 q 2.13,3.74 2.13,10.1 v 28.68 z"
         id="path21-2" /><path
         class="cls-2"
         d="m 496.08,609.69 q -8.91,0 -13.79,-3.82 a 13,13 0 0 1 -5.05,-10.44 h 7.63 a 7.52,7.52 0 0 0 2.68,5 c 1.66,1.55 4.51,2.33 8.53,2.33 q 5.43,0 8.31,-2.16 a 6.44,6.44 0 0 0 2.89,-5.31 5.15,5.15 0 0 0 -2.12,-4.37 q -2.13,-1.57 -6.88,-2.08 l -4.92,-0.51 a 20.11,20.11 0 0 1 -10.52,-3.86 10.69,10.69 0 0 1 -4.08,-9 12.49,12.49 0 0 1 2.21,-7.43 14,14 0 0 1 6.11,-4.75 22.93,22.93 0 0 1 9,-1.66 q 7.64,0 12.39,3.4 4.75,3.4 4.92,10.1 h -7.64 a 6,6 0 0 0 -2.5,-4.63 c -1.61,-1.27 -4,-1.91 -7.17,-1.91 -3.17,0 -5.58,0.65 -7.22,1.95 a 6.06,6.06 0 0 0 -2.46,4.93 5.16,5.16 0 0 0 1.74,4.07 q 1.74,1.53 5.73,2 l 4.92,0.51 q 7.31,0.76 11.71,4 a 10.78,10.78 0 0 1 4.42,9.21 12.31,12.31 0 0 1 -2.42,7.51 15.76,15.76 0 0 1 -6.66,5.09 24.48,24.48 0 0 1 -9.76,1.83 z"
         id="path22-9" /><path
         class="cls-2"
         d="m 546.15,609.86 a 23.37,23.37 0 0 1 -10.14,-2 20.18,20.18 0 0 1 -7.09,-5.47 24,24 0 0 1 -4.2,-7.6 26,26 0 0 1 -1.4,-8.31 v -1.53 a 26.51,26.51 0 0 1 1.4,-8.49 22.72,22.72 0 0 1 4.24,-7.51 21.16,21.16 0 0 1 7.09,-5.39 22.69,22.69 0 0 1 9.93,-2 23.82,23.82 0 0 1 10.23,2.13 18.35,18.35 0 0 1 7.3,6 17.19,17.19 0 0 1 3.09,9.12 h -7.8 a 11.12,11.12 0 0 0 -3.91,-7.09 c -2.21,-1.89 -5.17,-2.84 -8.91,-2.84 a 14,14 0 0 0 -8.06,2.21 13.43,13.43 0 0 0 -4.84,6 23.75,23.75 0 0 0 0,17.19 13.51,13.51 0 0 0 4.88,6.11 14.12,14.12 0 0 0 8.19,2.25 15,15 0 0 0 6.62,-1.36 11.89,11.89 0 0 0 4.5,-3.65 10.65,10.65 0 0 0 2,-5.17 h 7.8 a 16.73,16.73 0 0 1 -3.09,9.25 19.17,19.17 0 0 1 -7.47,6.07 24.31,24.31 0 0 1 -10.36,2.08 z"
         id="path23-1" /><path
         class="cls-2"
         d="m 599,609.86 a 25.06,25.06 0 0 1 -10.44,-2 23.33,23.33 0 0 1 -7.59,-5.39 22.76,22.76 0 0 1 -4.67,-7.51 23.75,23.75 0 0 1 -1.57,-8.48 v -1.53 a 23.71,23.71 0 0 1 1.61,-8.53 23,23 0 0 1 12.4,-12.9 27.34,27.34 0 0 1 20.53,0 23.23,23.23 0 0 1 7.64,5.34 22.93,22.93 0 0 1 4.75,7.56 23.51,23.51 0 0 1 1.62,8.53 v 1.53 a 24,24 0 0 1 -1.57,8.48 22.92,22.92 0 0 1 -4.67,7.51 23.27,23.27 0 0 1 -7.6,5.39 25,25 0 0 1 -10.44,2 z m 0,-7.3 a 16.09,16.09 0 0 0 8.7,-2.25 14.77,14.77 0 0 0 5.52,-6.07 20.19,20.19 0 0 0 0,-17.23 14.88,14.88 0 0 0 -5.56,-6 17.82,17.82 0 0 0 -17.19,0 14.77,14.77 0 0 0 -5.6,6 20.19,20.19 0 0 0 0,17.23 14.77,14.77 0 0 0 5.52,6.07 16.08,16.08 0 0 0 8.61,2.25 z"
         id="path24-3" /><path
         class="cls-2"
         d="M 635.52,608.33 V 563 H 642 v 19.44 h -1 a 31.2,31.2 0 0 1 1.82,-11.34 14.41,14.41 0 0 1 5.56,-7 17,17 0 0 1 9.43,-2.42 h 0.33 q 8.58,0 12.69,5.35 4.11,5.35 4.12,15.45 v 25.88 h -8.15 v -27.61 a 11.9,11.9 0 0 0 -3,-8.45 10.61,10.61 0 0 0 -8.15,-3.18 11.71,11.71 0 0 0 -8.66,3.31 12,12 0 0 0 -3.3,8.83 v 27.07 z"
         id="path25-5" /><path
         class="cls-2"
         d="m 709.27,609.86 a 23.37,23.37 0 0 1 -10.14,-2 20.18,20.18 0 0 1 -7.09,-5.47 24,24 0 0 1 -4.2,-7.6 26,26 0 0 1 -1.4,-8.31 v -1.53 a 26.51,26.51 0 0 1 1.4,-8.49 22.72,22.72 0 0 1 4.24,-7.51 21.16,21.16 0 0 1 7.09,-5.39 22.69,22.69 0 0 1 9.93,-2 23.82,23.82 0 0 1 10.23,2.13 18.35,18.35 0 0 1 7.3,6 17.19,17.19 0 0 1 3.09,9.12 h -7.8 a 11.12,11.12 0 0 0 -3.91,-7.09 q -3.3,-2.83 -8.91,-2.84 a 14,14 0 0 0 -8.1,2.12 13.5,13.5 0 0 0 -4.84,6 23.75,23.75 0 0 0 0,17.19 13.58,13.58 0 0 0 4.88,6.11 14.12,14.12 0 0 0 8.19,2.25 15,15 0 0 0 6.62,-1.36 11.89,11.89 0 0 0 4.5,-3.65 10.65,10.65 0 0 0 2,-5.17 h 7.8 a 16.73,16.73 0 0 1 -3.09,9.25 19.17,19.17 0 0 1 -7.47,6.07 24.31,24.31 0 0 1 -10.32,2.17 z"
         id="path26-9" /><path
         class="cls-2"
         d="m 760.54,609.86 a 23.92,23.92 0 0 1 -10.28,-2 19.66,19.66 0 0 1 -7,-5.39 22.45,22.45 0 0 1 -4,-7.51 27.86,27.86 0 0 1 -1.32,-8.48 v -1.53 a 28.15,28.15 0 0 1 1.32,-8.57 22.59,22.59 0 0 1 4,-7.52 19.57,19.57 0 0 1 6.92,-5.34 22.82,22.82 0 0 1 9.89,-2 q 7.38,0 12.17,3.18 a 19.75,19.75 0 0 1 7.13,8.2 24.91,24.91 0 0 1 2.34,10.69 v 3.65 h -40.27 v -6.11 h 34.29 l -1.87,3.31 a 20.87,20.87 0 0 0 -1.53,-8.36 12,12 0 0 0 -4.58,-5.48 14.13,14.13 0 0 0 -7.72,-1.95 13.78,13.78 0 0 0 -8,2.21 13.3,13.3 0 0 0 -4.75,6 25.22,25.22 0 0 0 0,17.52 13.24,13.24 0 0 0 4.88,6.11 16.95,16.95 0 0 0 17.1,-0.13 9.18,9.18 0 0 0 4,-5.51 h 7.64 a 17.9,17.9 0 0 1 -3.73,8.06 18.1,18.1 0 0 1 -7,5.18 24.67,24.67 0 0 1 -9.63,1.77 z"
         id="path27-8" /><path
         class="cls-2"
         d="m 838.36,609.86 a 25.06,25.06 0 0 1 -10.44,-2 23.12,23.12 0 0 1 -7.59,-5.39 22.76,22.76 0 0 1 -4.67,-7.51 23.75,23.75 0 0 1 -1.57,-8.48 v -1.53 a 23.5,23.5 0 0 1 1.61,-8.53 23,23 0 0 1 12.39,-12.9 27.37,27.37 0 0 1 20.54,0 23,23 0 0 1 12.37,12.86 23.5,23.5 0 0 1 1.61,8.53 v 1.53 a 24,24 0 0 1 -1.56,8.48 22.92,22.92 0 0 1 -4.67,7.51 23.27,23.27 0 0 1 -7.6,5.39 25.06,25.06 0 0 1 -10.42,2.04 z m 0,-7.3 a 16.12,16.12 0 0 0 8.7,-2.25 14.84,14.84 0 0 0 5.52,-6.07 18.91,18.91 0 0 0 1.91,-8.57 18.68,18.68 0 0 0 -2,-8.66 14.86,14.86 0 0 0 -5.55,-6 17.82,17.82 0 0 0 -17.19,0 14.77,14.77 0 0 0 -5.6,6 20.1,20.1 0 0 0 0,17.23 14.81,14.81 0 0 0 5.51,6.07 16.14,16.14 0 0 0 8.7,2.25 z"
         id="path28-4" /><path
         class="cls-2"
         d="m 889.71,609.69 q -8.91,0 -13.79,-3.82 a 13,13 0 0 1 -5,-10.44 h 7.64 a 7.46,7.46 0 0 0 2.67,5 q 2.51,2.33 8.53,2.33 5.43,0 8.31,-2.16 a 6.44,6.44 0 0 0 2.89,-5.31 5.15,5.15 0 0 0 -2.12,-4.37 q -2.13,-1.57 -6.87,-2.08 L 887,588.3 a 20.11,20.11 0 0 1 -10.52,-3.86 10.69,10.69 0 0 1 -4.08,-9 12.49,12.49 0 0 1 2.21,-7.43 14,14 0 0 1 6.11,-4.75 22.93,22.93 0 0 1 9,-1.66 q 7.63,0 12.39,3.4 4.76,3.4 4.92,10.1 h -7.64 a 6,6 0 0 0 -2.5,-4.63 q -2.42,-1.9 -7.17,-1.91 -4.75,-0.01 -7.22,1.95 a 6.06,6.06 0 0 0 -2.46,4.93 5.16,5.16 0 0 0 1.74,4.07 q 1.74,1.53 5.73,2 l 4.92,0.51 q 7.3,0.76 11.72,4 a 10.8,10.8 0 0 1 4.41,9.21 12.31,12.31 0 0 1 -2.42,7.51 15.76,15.76 0 0 1 -6.66,5.09 24.45,24.45 0 0 1 -9.77,1.86 z"
         id="path29-0" /><path
         class="cls-2"
         d="m 787.18,554.25 v -7.87 h 14.43 v 7.87 z m 6.28,54.08 v -62 h 8.15 v 62 z"
         id="path30-7" /><path
         class="cls-1"
         d="m 415.16,328 v 7.64 h -15.44 a 25.58,25.58 0 0 0 -10,1.82 21.59,21.59 0 0 0 -12.19,12.61 26.58,26.58 0 0 0 -1.61,9.33 27.06,27.06 0 0 0 1.61,9.55 21.35,21.35 0 0 0 4.72,7.47 20.67,20.67 0 0 0 7.47,4.88 27.38,27.38 0 0 0 10,1.7 h 15.44 v 7.63 h -14.59 a 37.79,37.79 0 0 1 -14.6,-2.58 29.68,29.68 0 0 1 -10.31,-7 29.19,29.19 0 0 1 -6.16,-9.77 31,31 0 0 1 -2,-11 v -1.86 a 30.92,30.92 0 0 1 2,-10.86 29.42,29.42 0 0 1 6.16,-9.85 30.38,30.38 0 0 1 10.34,-7.03 36.66,36.66 0 0 1 14.6,-2.67 z"
         id="path31-6" /><path
         class="cls-1"
         d="m 367.46,691.09 v -27.87 h 3.79 L 380,682.5 h 0.69 l 8.74,-19.28 h 3.86 v 27.87 h -2.9 v -24.63 h 0.22 l -8.47,18.71 h -3.82 l -8.52,-18.71 h 0.31 v 24.63 z"
         id="path32-3" /><path
         class="cls-1"
         d="m 409.81,691.74 a 10.44,10.44 0 0 1 -4.5,-0.9 8.51,8.51 0 0 1 -3.13,-2.41 10,10 0 0 1 -1.82,-3.37 12.86,12.86 0 0 1 -0.59,-3.86 v -0.53 a 12.74,12.74 0 0 1 0.59,-3.82 9.79,9.79 0 0 1 1.82,-3.36 8.81,8.81 0 0 1 3.07,-2.39 9.76,9.76 0 0 1 4.33,-0.9 9.35,9.35 0 0 1 5.29,1.42 9.11,9.11 0 0 1 3.19,3.6 10.71,10.71 0 0 1 1.07,4.72 v 1.49 h -18.06 v -2.22 h 16.07 l -0.73,1.11 a 9.22,9.22 0 0 0 -0.78,-4 6.15,6.15 0 0 0 -2.29,-2.67 6.78,6.78 0 0 0 -3.76,-1 6.61,6.61 0 0 0 -3.93,1.11 6.82,6.82 0 0 0 -2.35,2.94 10.53,10.53 0 0 0 -0.78,4.16 10.93,10.93 0 0 0 0.78,4.19 6.58,6.58 0 0 0 2.41,3 8.18,8.18 0 0 0 8.38,-0.09 4.92,4.92 0 0 0 2,-2.85 h 2.67 a 7.53,7.53 0 0 1 -1.6,3.49 8.08,8.08 0 0 1 -3.09,2.28 10.85,10.85 0 0 1 -4.26,0.86 z"
         id="path33-6" /><path
         class="cls-1"
         d="m 432.91,691.74 a 9.65,9.65 0 0 1 -4,-0.82 9.35,9.35 0 0 1 -3.13,-2.29 10.54,10.54 0 0 1 -2,-3.36 11.51,11.51 0 0 1 -0.71,-4 v -0.54 a 11.44,11.44 0 0 1 0.69,-4 10.48,10.48 0 0 1 2,-3.36 9.28,9.28 0 0 1 3.09,-2.33 9.4,9.4 0 0 1 4.06,-0.86 9,9 0 0 1 4.51,1.11 8.28,8.28 0 0 1 3.13,3.19 10.7,10.7 0 0 1 1.26,5.1 l -1.26,-2.37 v -14 h 2.87 v 27.87 h -2.29 v -9 H 442 a 11,11 0 0 1 -1.32,5.32 8.11,8.11 0 0 1 -3.24,3.23 9.42,9.42 0 0 1 -4.53,1.11 z m 0.38,-2.52 a 7.61,7.61 0 0 0 3.73,-0.92 6.58,6.58 0 0 0 2.61,-2.62 7.79,7.79 0 0 0 1,-3.91 v -1.83 a 7.23,7.23 0 0 0 -1,-3.76 6.78,6.78 0 0 0 -2.61,-2.54 7.7,7.7 0 0 0 -3.76,-0.92 7,7 0 0 0 -3.92,1.09 7.17,7.17 0 0 0 -2.56,3 10.33,10.33 0 0 0 0,8.48 7,7 0 0 0 2.6,2.92 7.19,7.19 0 0 0 3.91,1.01 z"
         id="path34-1" /><path
         class="cls-1"
         d="m 448.57,673.18 v -2.29 h 6.07 v 2.29 z m 3.85,-6 a 2,2 0 0 1 -1.54,-0.56 2.12,2.12 0 0 1 0,-2.78 2,2 0 0 1 1.54,-0.56 2,2 0 0 1 1.53,0.56 2.18,2.18 0 0 1 0,2.78 2,2 0 0 1 -1.53,0.53 z m -0.61,23.94 v -20.2 h 2.83 v 20.2 z"
         id="path35" /><path
         class="cls-1"
         d="m 470.67,691.74 a 10.31,10.31 0 0 1 -4.45,-0.9 8.91,8.91 0 0 1 -3.14,-2.44 11.17,11.17 0 0 1 -1.9,-3.42 12.07,12.07 0 0 1 -0.62,-3.78 v -0.53 a 12,12 0 0 1 0.62,-3.8 10.54,10.54 0 0 1 1.9,-3.36 9.19,9.19 0 0 1 3.14,-2.41 10.11,10.11 0 0 1 4.38,-0.9 10.49,10.49 0 0 1 4.48,0.92 8,8 0 0 1 3.19,2.6 7.87,7.87 0 0 1 1.45,4 H 477 a 5.61,5.61 0 0 0 -2,-3.49 6.5,6.5 0 0 0 -4.41,-1.4 6.83,6.83 0 0 0 -4,1.09 6.68,6.68 0 0 0 -2.39,2.94 10.27,10.27 0 0 0 -0.8,4.1 10.49,10.49 0 0 0 0.8,4.11 6.57,6.57 0 0 0 6.45,4.14 7.43,7.43 0 0 0 3.27,-0.67 5.94,5.94 0 0 0 2.25,-1.81 5.12,5.12 0 0 0 1,-2.52 H 480 a 7.28,7.28 0 0 1 -1.43,4 8.49,8.49 0 0 1 -3.3,2.63 10.64,10.64 0 0 1 -4.6,0.9 z"
         id="path36" /><path
         class="cls-1"
         d="m 483.05,673.18 v -2.29 h 6.06 v 2.29 z m 3.85,-6 a 2,2 0 0 1 -1.55,-0.56 2.15,2.15 0 0 1 0,-2.78 2,2 0 0 1 1.55,-0.56 2,2 0 0 1 1.53,0.56 2.18,2.18 0 0 1 0,2.78 2,2 0 0 1 -1.53,0.53 z m -0.61,23.94 v -20.2 h 2.82 v 20.2 z"
         id="path37" /><path
         class="cls-1"
         d="m 496.64,691.09 v -20.2 h 2.29 v 8.48 h -0.46 a 12.64,12.64 0 0 1 0.84,-4.85 6.72,6.72 0 0 1 2.52,-3.13 7.53,7.53 0 0 1 4.24,-1.11 h 0.11 a 6.79,6.79 0 0 1 5.69,2.39 10.6,10.6 0 0 1 1.87,6.7 v 11.72 h -2.82 v -12.33 a 6.11,6.11 0 0 0 -1.45,-4.24 5.19,5.19 0 0 0 -4.05,-1.61 5.76,5.76 0 0 0 -4.3,1.67 6,6 0 0 0 -1.62,4.42 v 12.14 z"
         id="path38" /><path
         class="cls-1"
         d="m 526.34,691.62 a 8.86,8.86 0 0 1 -3.78,-0.76 5.84,5.84 0 0 1 -2.54,-2.21 6.56,6.56 0 0 1 -0.9,-3.52 6.09,6.09 0 0 1 0.94,-3.43 5.89,5.89 0 0 1 2.71,-2.16 11.07,11.07 0 0 1 4.3,-0.75 H 533 V 681 h -6.11 a 5.31,5.31 0 0 0 -3.69,1.17 3.9,3.9 0 0 0 -1.28,3 3.76,3.76 0 0 0 1.34,3 5.4,5.4 0 0 0 3.63,1.13 7.37,7.37 0 0 0 2.71,-0.51 4.85,4.85 0 0 0 2.18,-1.76 6.28,6.28 0 0 0 1,-3.42 l 0.84,1.19 a 8.24,8.24 0 0 1 -1.07,3.76 5.9,5.9 0 0 1 -2.48,2.27 8.3,8.3 0 0 1 -3.73,0.79 z m 6.84,-0.53 V 685 h -0.46 v -7.18 a 4.79,4.79 0 0 0 -1.18,-3.46 5,5 0 0 0 -3.67,-1.2 c -0.76,0 -1.53,0 -2.31,0 -0.78,0 -1.51,0.06 -2.21,0.09 l -1.86,0.14 v -2.52 l 1.72,-0.15 c 0.59,-0.06 1.19,-0.08 1.82,-0.1 h 1.81 a 13.48,13.48 0 0 1 5,0.77 5.23,5.23 0 0 1 2.77,2.38 9,9 0 0 1 0.88,4.3 v 13 z"
         id="path39" /><path
         class="cls-1"
         d="m 552.15,691.2 v -28.1 h 2.9 v 28.1 z m 2.18,-13.51 v -1.91 h 7.14 a 4.92,4.92 0 0 0 3.89,-1.43 5.89,5.89 0 0 0 0,-7.28 5,5 0 0 0 -3.89,-1.41 h -7.14 V 663.1 H 561 q 4.32,0 6.46,1.95 a 6.92,6.92 0 0 1 2.13,5.38 v 0.46 a 6.67,6.67 0 0 1 -1.06,3.92 6.14,6.14 0 0 1 -3,2.19 13.48,13.48 0 0 1 -4.53,0.69 z m 0,13.51 v -2.55 h 8.17 a 5.12,5.12 0 0 0 3.87,-1.44 5.83,5.83 0 0 0 0,-7.56 5.14,5.14 0 0 0 -3.89,-1.43 h -8.17 v -1.91 h 7.75 a 13.1,13.1 0 0 1 4.47,0.71 6.3,6.3 0 0 1 3.05,2.23 6.68,6.68 0 0 1 1.11,4 v 0.46 a 7.89,7.89 0 0 1 -1,3.95 6.3,6.3 0 0 1 -2.86,2.62 11.13,11.13 0 0 1 -4.81,0.91 z"
         id="path40" /><path
         class="cls-1"
         d="m 575,673.18 v -2.29 h 6.07 v 2.29 z m 3.86,-6 a 2,2 0 0 1 -1.55,-0.56 2.15,2.15 0 0 1 0,-2.78 2,2 0 0 1 1.55,-0.56 2,2 0 0 1 1.53,0.56 2.22,2.22 0 0 1 0,2.78 2,2 0 0 1 -1.51,0.53 z m -0.61,23.94 v -20.2 h 2.82 v 20.2 z"
         id="path41" /><path
         class="cls-1"
         d="m 597.66,691.74 a 10.85,10.85 0 0 1 -4.56,-0.9 9.86,9.86 0 0 1 -3.32,-2.41 10.8,10.8 0 0 1 -2.77,-7.19 v -0.54 a 10.46,10.46 0 0 1 0.73,-3.83 10.33,10.33 0 0 1 5.44,-5.77 10.64,10.64 0 0 1 4.48,-0.9 10.77,10.77 0 0 1 4.53,0.9 10.28,10.28 0 0 1 3.34,2.39 10,10 0 0 1 2.08,3.38 10.86,10.86 0 0 1 0.71,3.83 v 0.54 a 11,11 0 0 1 -0.69,3.82 10.43,10.43 0 0 1 -2,3.37 9.85,9.85 0 0 1 -3.34,2.41 11,11 0 0 1 -4.63,0.9 z m 0,-2.56 a 7.66,7.66 0 0 0 4.26,-1.13 7.36,7.36 0 0 0 2.66,-3 9.69,9.69 0 0 0 0,-8.24 7.16,7.16 0 0 0 -2.7,-2.94 8.56,8.56 0 0 0 -8.36,0 7.14,7.14 0 0 0 -2.69,2.94 9.59,9.59 0 0 0 0,8.24 7.36,7.36 0 0 0 2.66,3 7.56,7.56 0 0 0 4.17,1.13 z"
         id="path42" /><path
         class="cls-1"
         d="m 611.41,665.55 v -2.33 h 5.8 v 2.33 z m 2.94,25.54 v -27.87 h 2.86 v 27.87 z"
         id="path43" /><path
         class="cls-1"
         d="m 633.67,691.74 a 10.85,10.85 0 0 1 -4.56,-0.9 9.91,9.91 0 0 1 -3.33,-2.41 10.72,10.72 0 0 1 -2.76,-7.19 v -0.54 a 10.65,10.65 0 0 1 0.72,-3.83 10.33,10.33 0 0 1 5.44,-5.77 10.68,10.68 0 0 1 4.49,-0.9 10.81,10.81 0 0 1 4.53,0.9 10.39,10.39 0 0 1 3.34,2.39 10.17,10.17 0 0 1 2.08,3.38 10.85,10.85 0 0 1 0.7,3.83 v 0.54 a 11,11 0 0 1 -0.69,3.82 10.25,10.25 0 0 1 -2,3.37 9.75,9.75 0 0 1 -3.34,2.41 11,11 0 0 1 -4.62,0.9 z m 0,-2.56 a 7.68,7.68 0 0 0 4.26,-1.13 7.33,7.33 0 0 0 2.65,-3 9.59,9.59 0 0 0 0,-8.24 7.14,7.14 0 0 0 -2.69,-2.94 8.56,8.56 0 0 0 -8.36,0 7.14,7.14 0 0 0 -2.69,2.94 9,9 0 0 0 -0.94,4.14 9.11,9.11 0 0 0 0.92,4.1 7.33,7.33 0 0 0 2.65,3 7.59,7.59 0 0 0 4.2,1.13 z m -1.57,-21.46 3.33,-7.37 h 3 l -3.9,7.37 z"
         id="path44" /><path
         class="cls-1"
         d="m 657.88,699 c -1,0 -1.89,0 -2.85,-0.13 -0.96,-0.13 -1.86,-0.2 -2.73,-0.33 v -2.44 c 0.92,0.13 1.88,0.24 2.89,0.33 1.01,0.09 1.95,0.13 2.84,0.13 a 11.73,11.73 0 0 0 4.62,-0.76 4.64,4.64 0 0 0 2.46,-2.43 10.73,10.73 0 0 0 0.75,-4.37 v -4 l 1.07,-2.82 a 10.72,10.72 0 0 1 -1.23,5 8,8 0 0 1 -3.09,3.19 8.75,8.75 0 0 1 -4.43,1.11 9,9 0 0 1 -7,-3.15 10.85,10.85 0 0 1 -1.94,-3.35 11.21,11.21 0 0 1 -0.69,-3.93 v -0.53 a 11.05,11.05 0 0 1 0.69,-3.88 10.39,10.39 0 0 1 1.94,-3.28 9,9 0 0 1 3.08,-2.26 9.77,9.77 0 0 1 4,-0.82 9,9 0 0 1 4.66,1.19 8.26,8.26 0 0 1 3.11,3.28 10.91,10.91 0 0 1 1.2,4.93 l -0.91,-0.5 v -8.21 h 2.25 v 18 a 13.6,13.6 0 0 1 -1.07,5.84 6.57,6.57 0 0 1 -3.42,3.24 15.66,15.66 0 0 1 -6.2,0.95 z m 0.8,-10.23 a 7.46,7.46 0 0 0 3.68,-0.9 6.5,6.5 0 0 0 2.58,-2.54 7.39,7.39 0 0 0 1,-3.81 v -1.88 a 6.74,6.74 0 0 0 -3.56,-6.1 7.42,7.42 0 0 0 -3.66,-0.88 6.89,6.89 0 0 0 -3.86,1.07 7.05,7.05 0 0 0 -2.52,2.88 10.05,10.05 0 0 0 0,8.27 6.92,6.92 0 0 0 2.54,2.86 7,7 0 0 0 3.8,1.02 z"
         id="path45" /><path
         class="cls-1"
         d="m 673.61,673.18 v -2.29 h 6.07 v 2.29 z m 3.86,-6 a 2,2 0 0 1 -1.55,-0.56 2.15,2.15 0 0 1 0,-2.78 2,2 0 0 1 1.55,-0.56 2,2 0 0 1 1.53,0.56 2.22,2.22 0 0 1 0,2.78 2,2 0 0 1 -1.53,0.53 z m -0.61,23.94 v -20.2 h 2.82 v 20.2 z"
         id="path46" /><path
         class="cls-1"
         d="m 695.72,691.74 a 10.24,10.24 0 0 1 -4.45,-0.9 8.86,8.86 0 0 1 -3.15,-2.44 10.94,10.94 0 0 1 -1.89,-3.42 11.8,11.8 0 0 1 -0.63,-3.78 v -0.53 a 11.69,11.69 0 0 1 0.63,-3.8 10.33,10.33 0 0 1 1.89,-3.36 9.13,9.13 0 0 1 3.15,-2.41 10.06,10.06 0 0 1 4.37,-0.9 10.53,10.53 0 0 1 4.49,0.92 7.86,7.86 0 0 1 4.64,6.57 H 702 a 5.67,5.67 0 0 0 -2,-3.49 6.48,6.48 0 0 0 -4.41,-1.4 6.87,6.87 0 0 0 -4,1.09 6.75,6.75 0 0 0 -2.39,2.94 10.27,10.27 0 0 0 -0.8,4.1 10.49,10.49 0 0 0 0.8,4.11 6.57,6.57 0 0 0 6.46,4.14 7.42,7.42 0 0 0 3.26,-0.67 5.94,5.94 0 0 0 2.25,-1.81 5.14,5.14 0 0 0 1,-2.52 H 705 a 7.35,7.35 0 0 1 -1.43,4 8.59,8.59 0 0 1 -3.31,2.63 10.6,10.6 0 0 1 -4.54,0.93 z"
         id="path47" /><path
         class="cls-1"
         d="m 715.72,691.62 a 8.89,8.89 0 0 1 -3.78,-0.76 5.84,5.84 0 0 1 -2.54,-2.21 6.64,6.64 0 0 1 -0.89,-3.52 6,6 0 0 1 0.94,-3.43 5.81,5.81 0 0 1 2.7,-2.16 11.07,11.07 0 0 1 4.3,-0.75 h 5.92 V 681 h -6.11 a 5.26,5.26 0 0 0 -3.68,1.17 3.87,3.87 0 0 0 -1.29,3 3.76,3.76 0 0 0 1.34,3 5.4,5.4 0 0 0 3.63,1.13 7.37,7.37 0 0 0 2.71,-0.51 4.8,4.8 0 0 0 2.18,-1.76 6.28,6.28 0 0 0 1,-3.42 l 0.84,1.19 a 8.24,8.24 0 0 1 -1.07,3.76 5.84,5.84 0 0 1 -2.48,2.27 8.27,8.27 0 0 1 -3.72,0.79 z m 6.84,-0.53 V 685 h -0.46 v -7.18 a 4.74,4.74 0 0 0 -1.18,-3.46 5,5 0 0 0 -3.67,-1.2 c -0.76,0 -1.53,0 -2.31,0 -0.78,0 -1.51,0.06 -2.21,0.09 l -1.85,0.14 v -2.52 l 1.71,-0.15 c 0.59,-0.06 1.19,-0.08 1.82,-0.1 h 1.81 a 13.58,13.58 0 0 1 5,0.77 5.21,5.21 0 0 1 2.76,2.38 9,9 0 0 1 0.88,4.3 v 13 z"
         id="path48" /><path
         class="cls-1"
         d="m 749.32,691.74 a 10.44,10.44 0 0 1 -4.5,-0.9 8.59,8.59 0 0 1 -3.13,-2.41 10.2,10.2 0 0 1 -1.82,-3.37 12.86,12.86 0 0 1 -0.59,-3.86 v -0.53 a 12.74,12.74 0 0 1 0.59,-3.82 10,10 0 0 1 1.82,-3.36 8.9,8.9 0 0 1 3.07,-2.39 9.82,9.82 0 0 1 4.33,-0.9 9.33,9.33 0 0 1 5.29,1.42 9,9 0 0 1 3.19,3.6 10.71,10.71 0 0 1 1.07,4.72 v 1.49 h -18.06 v -2.22 h 16.07 l -0.72,1.11 a 9.37,9.37 0 0 0 -0.78,-4 6.22,6.22 0 0 0 -2.29,-2.67 6.82,6.82 0 0 0 -3.77,-1 6.63,6.63 0 0 0 -3.93,1.11 6.89,6.89 0 0 0 -2.35,2.94 10.53,10.53 0 0 0 -0.78,4.16 10.93,10.93 0 0 0 0.78,4.19 6.71,6.71 0 0 0 2.41,3 8.18,8.18 0 0 0 8.38,-0.09 4.93,4.93 0 0 0 2,-2.85 h 2.67 a 7.54,7.54 0 0 1 -1.61,3.49 8,8 0 0 1 -3.09,2.28 10.85,10.85 0 0 1 -4.25,0.86 z"
         id="path49" /><path
         class="cls-1"
         d="m 773.76,691.09 v -27.87 h 2.9 v 27.87 z"
         id="path50" /><path
         class="cls-1"
         d="m 784.8,691.09 v -20.2 h 2.29 v 8.48 h -0.46 a 12.64,12.64 0 0 1 0.84,-4.85 6.72,6.72 0 0 1 2.52,-3.13 7.53,7.53 0 0 1 4.24,-1.11 h 0.11 a 6.79,6.79 0 0 1 5.69,2.39 10.6,10.6 0 0 1 1.87,6.7 v 11.72 h -2.82 v -12.33 a 6.11,6.11 0 0 0 -1.45,-4.24 5.19,5.19 0 0 0 -4,-1.61 5.72,5.72 0 0 0 -4.3,1.67 6,6 0 0 0 -1.62,4.37 v 12.14 z"
         id="path51" /><path
         class="cls-1"
         d="m 805.91,673.07 v -2.18 h 13.67 v 2.18 z m 10.46,18.25 a 9.83,9.83 0 0 1 -3.62,-0.61 4.67,4.67 0 0 1 -2.37,-2.08 8,8 0 0 1 -0.84,-4 v -20.12 h 2.75 v 20.58 a 3.64,3.64 0 0 0 1,2.7 3.73,3.73 0 0 0 2.71,0.93 h 3.63 v 2.6 z"
         id="path52" /><path
         class="cls-1"
         d="m 833.36,691.74 a 10.47,10.47 0 0 1 -4.5,-0.9 8.59,8.59 0 0 1 -3.13,-2.41 10.18,10.18 0 0 1 -1.81,-3.37 12.55,12.55 0 0 1 -0.59,-3.86 v -0.53 a 12.43,12.43 0 0 1 0.59,-3.82 9.94,9.94 0 0 1 1.81,-3.36 8.9,8.9 0 0 1 3.07,-2.39 9.84,9.84 0 0 1 4.34,-0.9 9.38,9.38 0 0 1 5.29,1.42 9,9 0 0 1 3.18,3.6 10.57,10.57 0 0 1 1.07,4.72 v 1.49 h -18.06 v -2.22 h 16.08 l -0.73,1.11 a 9.37,9.37 0 0 0 -0.78,-4 6.22,6.22 0 0 0 -2.29,-2.67 6.81,6.81 0 0 0 -3.76,-1 6.61,6.61 0 0 0 -3.93,1.11 6.84,6.84 0 0 0 -2.36,2.94 10.53,10.53 0 0 0 -0.78,4.16 10.93,10.93 0 0 0 0.78,4.19 6.71,6.71 0 0 0 2.41,3 8.18,8.18 0 0 0 8.38,-0.09 4.93,4.93 0 0 0 2,-2.85 h 2.67 a 7.63,7.63 0 0 1 -1.6,3.49 8.11,8.11 0 0 1 -3.1,2.28 10.85,10.85 0 0 1 -4.25,0.86 z"
         id="path53" /><path
         class="cls-1"
         d="m 855.89,699 c -0.94,0 -1.89,0 -2.84,-0.13 -0.95,-0.13 -1.86,-0.2 -2.73,-0.33 v -2.44 c 0.91,0.13 1.88,0.24 2.88,0.33 1,0.09 2,0.13 2.84,0.13 a 11.78,11.78 0 0 0 4.63,-0.76 4.71,4.71 0 0 0 2.46,-2.43 10.73,10.73 0 0 0 0.75,-4.37 v -4 l 1.06,-2.82 a 10.71,10.71 0 0 1 -1.22,5 8,8 0 0 1 -3.09,3.19 8.8,8.8 0 0 1 -4.43,1.11 9.25,9.25 0 0 1 -4,-0.84 9.13,9.13 0 0 1 -3,-2.31 10.87,10.87 0 0 1 -2,-3.35 11.2,11.2 0 0 1 -0.68,-3.93 v -0.53 a 11,11 0 0 1 0.68,-3.88 10.42,10.42 0 0 1 2,-3.28 8.86,8.86 0 0 1 3.08,-2.26 9.77,9.77 0 0 1 4,-0.82 8.91,8.91 0 0 1 4.65,1.19 8.26,8.26 0 0 1 3.11,3.28 10.91,10.91 0 0 1 1.21,4.93 l -0.92,-0.5 v -8.21 h 2.25 v 18 a 13.61,13.61 0 0 1 -1.06,5.84 6.64,6.64 0 0 1 -3.42,3.24 15.75,15.75 0 0 1 -6.21,0.95 z m 0.81,-10.23 a 7.46,7.46 0 0 0 3.68,-0.9 6.63,6.63 0 0 0 2.58,-2.54 7.48,7.48 0 0 0 0.95,-3.81 v -1.88 a 6.71,6.71 0 0 0 -3.55,-6.1 7.45,7.45 0 0 0 -3.66,-0.88 6.84,6.84 0 0 0 -3.86,1.07 7.05,7.05 0 0 0 -2.52,2.88 9.24,9.24 0 0 0 -0.88,4.1 9.39,9.39 0 0 0 0.9,4.17 6.85,6.85 0 0 0 2.54,2.86 7,7 0 0 0 3.82,1.02 z"
         id="path54" /><path
         class="cls-1"
         d="m 873.8,691.09 v -20.2 h 2.29 v 8.44 h -0.23 c 0,-3 0.65,-5.13 1.95,-6.55 1.3,-1.42 3.34,-2.12 6.11,-2.12 h 0.65 v 2.6 h -1.18 a 6.86,6.86 0 0 0 -5,1.7 6.72,6.72 0 0 0 -1.71,5 v 11.15 z"
         id="path55" /><path
         class="cls-1"
         d="m 894.57,691.62 a 8.86,8.86 0 0 1 -3.78,-0.76 5.84,5.84 0 0 1 -2.54,-2.21 6.56,6.56 0 0 1 -0.9,-3.52 6.09,6.09 0 0 1 0.94,-3.43 5.89,5.89 0 0 1 2.71,-2.16 11.07,11.07 0 0 1 4.3,-0.75 h 5.92 V 681 h -6.11 a 5.29,5.29 0 0 0 -3.69,1.17 3.9,3.9 0 0 0 -1.28,3 3.76,3.76 0 0 0 1.34,3 5.4,5.4 0 0 0 3.63,1.13 7.37,7.37 0 0 0 2.71,-0.51 4.85,4.85 0 0 0 2.18,-1.76 6.28,6.28 0 0 0 1,-3.42 l 0.84,1.19 a 8.24,8.24 0 0 1 -1.07,3.76 5.9,5.9 0 0 1 -2.48,2.27 8.3,8.3 0 0 1 -3.72,0.79 z m 6.84,-0.53 V 685 H 901 v -7.18 a 4.79,4.79 0 0 0 -1.18,-3.46 5,5 0 0 0 -3.67,-1.2 c -0.76,0 -1.53,0 -2.31,0 -0.78,0 -1.51,0.06 -2.22,0.09 l -1.85,0.14 v -2.52 l 1.72,-0.15 c 0.59,-0.06 1.19,-0.08 1.81,-0.1 h 1.82 a 13.48,13.48 0 0 1 5,0.77 5.23,5.23 0 0 1 2.77,2.38 9.14,9.14 0 0 1 0.88,4.3 v 13 z"
         id="path56" /><path
         class="cls-1"
         d="m 907.71,673.07 v -2.18 h 13.67 v 2.18 z m 10.46,18.25 a 9.92,9.92 0 0 1 -3.63,-0.61 4.67,4.67 0 0 1 -2.37,-2.08 8,8 0 0 1 -0.84,-4 v -20.12 h 2.75 v 20.58 a 3.6,3.6 0 0 0 1,2.7 3.71,3.71 0 0 0 2.71,0.93 h 3.63 v 2.6 z"
         id="path57" /><path
         class="cls-1"
         d="m 924.74,673.18 v -2.29 h 6.07 v 2.29 z m 3.85,-6 a 2,2 0 0 1 -1.55,-0.56 2.15,2.15 0 0 1 0,-2.78 2,2 0 0 1 1.55,-0.56 2,2 0 0 1 1.53,0.56 2.18,2.18 0 0 1 0,2.78 2,2 0 0 1 -1.53,0.53 z M 928,691.09 v -20.2 h 2.83 v 20.2 z"
         id="path58" /><path
         class="cls-1"
         d="m 942.83,691.09 -7.1,-20.2 h 2.94 l 7,20.2 z m 0.77,0 v -2.33 h 3.62 v 2.33 z m 1.56,0 6.15,-20.2 h 2.83 l -6.27,20.2 z"
         id="path59" /><path
         class="cls-1"
         d="m 964.56,691.62 a 8.83,8.83 0 0 1 -3.78,-0.76 5.84,5.84 0 0 1 -2.54,-2.21 6.56,6.56 0 0 1 -0.9,-3.52 6,6 0 0 1 0.94,-3.43 5.79,5.79 0 0 1 2.71,-2.16 11,11 0 0 1 4.29,-0.75 h 5.92 V 681 h -6.11 a 5.26,5.26 0 0 0 -3.68,1.17 3.87,3.87 0 0 0 -1.28,3 3.73,3.73 0 0 0 1.34,3 5.39,5.39 0 0 0 3.62,1.13 7.29,7.29 0 0 0 2.71,-0.51 4.75,4.75 0 0 0 2.18,-1.76 6.36,6.36 0 0 0 1,-3.42 l 0.84,1.19 a 8.37,8.37 0 0 1 -1.07,3.76 5.87,5.87 0 0 1 -2.49,2.27 8.22,8.22 0 0 1 -3.7,0.79 z m 6.83,-0.53 V 685 h -0.45 v -7.18 a 4.75,4.75 0 0 0 -1.19,-3.46 5,5 0 0 0 -3.66,-1.2 c -0.77,0 -1.54,0 -2.32,0 -0.78,0 -1.51,0.06 -2.21,0.09 l -1.85,0.14 v -2.52 l 1.72,-0.15 c 0.58,-0.06 1.19,-0.08 1.81,-0.1 h 1.82 a 13.48,13.48 0 0 1 5,0.77 5.23,5.23 0 0 1 2.77,2.38 9.14,9.14 0 0 1 0.88,4.3 v 13 z"
         id="path60" /><path
         class="cls-1"
         d="m 165.79,327 a 139.6,139.6 0 0 0 -51.7,9.87 C 96,344.05 91.76,366.56 78.24,380.13 64.72,393.7 41.92,398.33 34.79,416.45 a 139.84,139.84 0 0 0 -9.67,51.22 c 0,77.56 63.1,140.66 140.66,140.66 h 38.84 a 45.59,45.59 0 0 0 45.6,-45.59 v -10.57 h 10.63 a 45.61,45.61 0 0 0 45.6,-45.6 v -38.9 C 306.45,390.11 243.35,327 165.79,327 Z m 84.43,225.16 h -84.44 a 84.44,84.44 0 1 1 84.44,-84.44 z"
         id="path61" /><path
         class="cls-2"
         d="m 249.38,243.91 a 84.45,84.45 0 0 1 -79.3,72.51 c 1.67,-39.63 35.92,-70.92 79.3,-72.51 z"
         id="path62" /><path
         class="cls-2"
         d="m 116.42,271.91 c 24,0 43.49,19.34 45.19,44.44 h -1.47 A 84.26,84.26 0 0 1 99.4,284.24 c -1.63,-2.17 -3.17,-4.42 -4.59,-6.76 5.99,-2.94 14.99,-5.57 21.61,-5.57 z"
         id="path63" /></g></g></svg>
