<?xml version="1.0" encoding="UTF-8" standalone="no"?>
<!-- Created with Inkscape (http://www.inkscape.org/) -->

<svg
   width="132.37898mm"
   height="171.45mm"
   viewBox="0 0 132.37898 171.45"
   version="1.1"
   id="svg1"
   xml:space="preserve"
   xmlns="http://www.w3.org/2000/svg"
   xmlns:svg="http://www.w3.org/2000/svg"><defs
     id="defs1"><style
       id="style1">.cls-1{fill:#76a5a2;}.cls-2{fill:#568684;}</style><style
       id="style1-4">.cls-1{fill:#568684;}.cls-2{fill:#76a5a2;}</style><style
       id="style1-0">.cls-1{fill:#76a5a2;}.cls-2{fill:#568684;}</style><style
       id="style1-42">.cls-1{fill:#76a5a2;}.cls-2{fill:#568684;}</style><style
       id="style1-2">.cls-1{fill:#76a5a2;}.cls-2{fill:#568684;}</style></defs><g
     id="layer1"
     transform="translate(-235.37797,-14.126324)"><g
       id="g4"
       transform="matrix(0.26458333,0,0,0.26458333,169.27713,-32.440341)"><path
         class="cls-1"
         d="m 500,323.73 a 248.44,248.44 0 0 0 -91.94,17.54 c -32.15,12.77 -39.71,52.81 -63.75,76.93 -24.04,24.12 -64.6,32.37 -77.27,64.61 a 248.48,248.48 0 0 0 -17.21,91.08 C 249.84,711.82 362.06,824 500,824 h 69.07 a 81.08,81.08 0 0 0 81.09,-81 v -18.8 h 18.91 a 81.09,81.09 0 0 0 81.09,-81.08 V 573.88 C 750.16,436 637.94,323.74 500,323.73 Z M 650.16,724.14 500,724 A 150.16,150.16 0 1 1 650.16,573.88 Z"
         id="path1-09" /><path
         class="cls-2"
         d="m 648.66,176 a 150.18,150.18 0 0 1 -141,129 c 2.95,-70.57 63.87,-126.22 141,-129 z"
         id="path2-7" /><path
         class="cls-2"
         d="m 412.21,225.75 c 42.72,0 77.34,34.4 80.37,79 -0.87,0 -1.75,0 -2.62,0 a 149.81,149.81 0 0 1 -108,-57.05 145,145 0 0 1 -8.16,-12 c 10.64,-5.27 26.65,-9.95 38.41,-9.95 z"
         id="path3-3" /></g></g></svg>
