<?xml version="1.0" encoding="UTF-8" standalone="no"?>
<!-- Created with Inkscape (http://www.inkscape.org/) -->

<svg
   width="161.74771mm"
   height="209.80278mm"
   viewBox="0 0 161.74771 209.80278"
   version="1.1"
   id="svg1"
   xml:space="preserve"
   xmlns="http://www.w3.org/2000/svg"
   xmlns:svg="http://www.w3.org/2000/svg"><defs
     id="defs1"><style
       id="style1">.cls-1{fill:#fff;}</style><style
       id="style1-7">.cls-1{fill:#fff;}</style><style
       id="style1-8">.cls-1{fill:#fff;}</style><style
       id="style1-2">.cls-1{fill:#fff;}</style><style
       id="style1-21">.cls-1{fill:#fff;}</style></defs><g
     id="layer1"
     transform="translate(-421.97371,-238.5645)"><g
       id="g5"
       transform="matrix(0.26458333,0,0,0.26458333,370.55722,211.17218)"><path
         class="cls-1"
         d="m 257.82,533.35 v -7.86 h 14.43 v 7.86 z m 6.28,54.77 v -62 h 8.15 v 62 z"
         id="path1-197" /><path
         class="cls-1"
         d="m 290.07,536 7.36,-9.34 h 8.45 L 298,536 Z m 0,52.17 V 542.8 h 8.15 v 45.32 z m -7.22,-37.46 v -7.91 h 14.43 v 7.86 z"
         id="path2-62" /><path
         class="cls-1"
         d="M 314,588.12 V 542.8 h 6.45 v 19.43 h -1 a 30.88,30.88 0 0 1 1.83,-11.33 14.35,14.35 0 0 1 5.56,-7 17,17 0 0 1 9.42,-2.42 h 0.34 q 8.57,0 12.68,5.35 4.11,5.35 4.12,15.44 v 25.89 h -8.15 v -27.62 a 11.89,11.89 0 0 0 -3,-8.45 10.6,10.6 0 0 0 -8.15,-3.18 11.68,11.68 0 0 0 -8.65,3.31 11.9,11.9 0 0 0 -3.31,8.82 v 27.08 z"
         id="path3-95" /><path
         class="cls-1"
         d="M 370.53,588.12 V 542.8 h 8.14 v 45.32 z m 4.07,-52.65 v 0 a 4.66,4.66 0 0 1 -4.65,-4.65 v 0 a 4.67,4.67 0 0 1 4.65,-4.66 v 0 a 4.67,4.67 0 0 1 4.65,4.66 v 0 a 4.66,4.66 0 0 1 -4.65,4.65 z m -11.29,15.19 v -7.86 h 14.43 v 7.86 z"
         id="path4-2" /><path
         class="cls-1"
         d="m 413.89,589.64 a 23.4,23.4 0 0 1 -10.14,-2 20,20 0 0 1 -7.08,-5.47 24.36,24.36 0 0 1 -4.21,-7.6 26,26 0 0 1 -1.4,-8.32 v -1.53 a 26.6,26.6 0 0 1 1.4,-8.49 22.7,22.7 0 0 1 4.25,-7.5 21.14,21.14 0 0 1 7.08,-5.4 22.85,22.85 0 0 1 9.94,-2 24,24 0 0 1 10.27,2.06 18.36,18.36 0 0 1 7.3,6 17.32,17.32 0 0 1 3.1,9.13 h -7.81 a 11.16,11.16 0 0 0 -3.9,-7.09 q -3.31,-2.83 -8.91,-2.84 a 14,14 0 0 0 -8.07,2.2 13.53,13.53 0 0 0 -4.84,6 23.75,23.75 0 0 0 0,17.19 13.7,13.7 0 0 0 4.88,6.11 14.12,14.12 0 0 0 8.19,2.25 14.93,14.93 0 0 0 6.62,-1.36 12,12 0 0 0 4.5,-3.65 10.68,10.68 0 0 0 2,-5.18 h 7.81 a 16.63,16.63 0 0 1 -3.1,9.25 19.08,19.08 0 0 1 -7.47,6.07 24.28,24.28 0 0 1 -10.41,2.17 z"
         id="path5-0" /><path
         class="cls-1"
         d="m 458.45,589.3 a 20.59,20.59 0 0 1 -8.78,-1.73 12.86,12.86 0 0 1 -5.69,-5.05 15.2,15.2 0 0 1 -2,-8 14.16,14.16 0 0 1 2.16,-8.06 13.16,13.16 0 0 1 6.32,-4.88 27,27 0 0 1 10,-1.66 h 12.3 v 6.11 h -12.61 q -4.92,0 -7.56,2.38 a 7.86,7.86 0 0 0 -2.63,6.11 7.59,7.59 0 0 0 2.63,6 q 2.64,2.3 7.56,2.29 a 14.61,14.61 0 0 0 5.52,-1.06 9.62,9.62 0 0 0 4.37,-3.56 12.83,12.83 0 0 0 1.9,-6.92 l 2.21,3.23 a 19.22,19.22 0 0 1 -2.33,8.1 12.6,12.6 0 0 1 -5.26,5 17.83,17.83 0 0 1 -8.11,1.7 z m 14.85,-1.18 v -13.58 h -1.36 v -15.7 q 0,-4.67 -2.41,-7.05 -2.41,-2.38 -7.09,-2.37 c -1.76,0 -3.56,0 -5.43,0.08 l -5.35,0.17 c -1.7,0.06 -3.17,0.14 -4.41,0.26 v -7.13 c 1.24,-0.12 2.56,-0.22 3.94,-0.3 1.38,-0.08 2.82,-0.14 4.29,-0.17 1.47,-0.03 2.89,0 4.25,0 a 33,33 0 0 1 11.37,1.65 12.1,12.1 0 0 1 6.53,5.39 q 2.13,3.74 2.12,10.1 v 28.69 z"
         id="path6-0" /><path
         class="cls-1"
         d="m 198.28,696.25 v -62.64 h 8.32 v 62.64 z m 6.62,0 v -7.64 h 15.45 a 25.8,25.8 0 0 0 10,-1.82 22.21,22.21 0 0 0 7.47,-5 21.7,21.7 0 0 0 4.71,-7.56 26.62,26.62 0 0 0 1.61,-9.33 27.06,27.06 0 0 0 -1.61,-9.55 21.33,21.33 0 0 0 -4.71,-7.47 20.84,20.84 0 0 0 -7.47,-4.88 27.42,27.42 0 0 0 -10,-1.7 H 204.9 v -7.64 h 14.6 a 37.82,37.82 0 0 1 14.6,2.59 29.78,29.78 0 0 1 10.31,7 29.06,29.06 0 0 1 6.15,9.76 30.86,30.86 0 0 1 2,11 v 1.87 a 30.69,30.69 0 0 1 -2,10.86 29.33,29.33 0 0 1 -6.15,9.85 30.47,30.47 0 0 1 -10.31,7.09 36.7,36.7 0 0 1 -14.6,2.67 z"
         id="path7-3" /><path
         class="cls-1"
         d="m 264.23,695.91 v -45.32 h 6.45 v 18.67 h -0.34 q 0,-9.93 4.37,-14.56 4.37,-4.63 13.11,-4.62 h 1.53 v 7.3 h -2.89 q -6.78,0 -10.44,3.6 -3.66,3.6 -3.64,10.4 v 24.53 z"
         id="path8-9" /><path
         class="cls-1"
         d="m 311.41,697.1 a 20.43,20.43 0 0 1 -8.78,-1.74 12.91,12.91 0 0 1 -5.69,-5.05 15.2,15.2 0 0 1 -2,-8 14.16,14.16 0 0 1 2.16,-8.06 13.2,13.2 0 0 1 6.33,-4.88 26.89,26.89 0 0 1 10,-1.66 h 12.31 v 6.11 h -12.63 q -4.92,0 -7.55,2.38 a 7.83,7.83 0 0 0 -2.63,6.11 7.56,7.56 0 0 0 2.63,6 q 2.63,2.29 7.55,2.3 a 14.81,14.81 0 0 0 5.52,-1.06 9.71,9.71 0 0 0 4.37,-3.55 12.92,12.92 0 0 0 1.91,-6.92 l 2.2,3.23 a 19.31,19.31 0 0 1 -2.33,8.11 12.58,12.58 0 0 1 -5.26,5 17.83,17.83 0 0 1 -8.11,1.68 z m 14.86,-1.19 v -13.58 h -1.36 v -15.7 q 0,-4.67 -2.42,-7 c -1.61,-1.58 -4,-2.37 -7.09,-2.37 -1.75,0 -3.56,0 -5.43,0.08 l -5.35,0.17 c -1.69,0.06 -3.17,0.15 -4.41,0.26 v -7.13 c 1.24,-0.12 2.56,-0.22 4,-0.3 1.44,-0.08 2.81,-0.14 4.28,-0.17 1.47,-0.03 2.89,0 4.25,0 a 33,33 0 0 1 11.37,1.65 12.1,12.1 0 0 1 6.53,5.39 q 2.13,3.74 2.13,10.1 V 696 Z"
         id="path9-18" /><path
         class="cls-1"
         d="m 346,695.91 v -10.36 h 9.84 v 10.36 z"
         id="path10-1" /><path
         class="cls-1"
         d="m 383.81,695.91 22.32,-62 h 14.09 l 23,62 h -8.57 l -20.8,-56.53 4.07,2 h -10 l 4.33,-2 -20.12,56.53 z m 13.32,-18.5 2.8,-7.47 h 26.74 l 2.8,7.47 z"
         id="path11-95" /><path
         class="cls-1"
         d="m 496.43,697.44 a 23.91,23.91 0 0 1 -10.27,-2 19.66,19.66 0 0 1 -7,-5.39 22.65,22.65 0 0 1 -4,-7.51 27.88,27.88 0 0 1 -1.32,-8.49 v -1.52 a 28.17,28.17 0 0 1 1.32,-8.58 22.65,22.65 0 0 1 4,-7.51 19.6,19.6 0 0 1 6.92,-5.35 23,23 0 0 1 9.88,-2 c 4.93,0 9,1.06 12.18,3.18 a 19.67,19.67 0 0 1 7.13,8.19 25,25 0 0 1 2.33,10.7 v 3.65 h -40.26 v -6.12 h 34.28 l -1.86,3.31 a 20.9,20.9 0 0 0 -1.53,-8.36 12,12 0 0 0 -4.58,-5.47 14.14,14.14 0 0 0 -7.73,-1.95 13.7,13.7 0 0 0 -8,2.21 13.25,13.25 0 0 0 -4.75,6 25.25,25.25 0 0 0 0,17.53 13.18,13.18 0 0 0 4.88,6.11 16.95,16.95 0 0 0 17.1,-0.13 9.17,9.17 0 0 0 4,-5.52 h 7.64 a 17.64,17.64 0 0 1 -10.79,13.23 24.51,24.51 0 0 1 -9.57,1.79 z"
         id="path12-3" /><path
         class="cls-1"
         d="m 523.5,695.91 16.21,-23.85 -0.25,1.7 -15.19,-23.17 h 9 l 11,17.06 h 1.19 l 10.35,-17.06 h 8.41 l -14.35,22.57 0.26,-1.52 17,24.27 h -9 L 545.4,677.49 h -1.19 l -12.22,18.42 z"
         id="path13-2" /><path
         class="cls-1"
         d="m 588.18,697.1 a 20.45,20.45 0 0 1 -8.79,-1.74 12.91,12.91 0 0 1 -5.69,-5.05 15.29,15.29 0 0 1 -2,-8 14.08,14.08 0 0 1 2.17,-8.06 13.22,13.22 0 0 1 6.32,-4.88 26.93,26.93 0 0 1 10,-1.66 h 12.31 v 6.11 h -12.62 q -4.93,0 -7.56,2.38 a 7.86,7.86 0 0 0 -2.63,6.11 7.59,7.59 0 0 0 2.63,6 q 2.63,2.29 7.56,2.3 a 14.72,14.72 0 0 0 5.51,-1.06 9.66,9.66 0 0 0 4.37,-3.57 12.83,12.83 0 0 0 1.91,-6.92 l 2.21,3.23 a 19.17,19.17 0 0 1 -2.34,8.11 12.52,12.52 0 0 1 -5.26,5 17.75,17.75 0 0 1 -8.1,1.7 z M 603,695.91 v -13.58 h -1.36 v -15.7 c 0,-3.11 -0.8,-5.46 -2.42,-7 -1.62,-1.54 -4,-2.37 -7.08,-2.37 -1.76,0 -3.57,0 -5.44,0.08 l -5.34,0.17 c -1.7,0.06 -3.17,0.15 -4.42,0.26 v -7.13 c 1.25,-0.12 2.56,-0.22 3.95,-0.3 1.39,-0.08 2.81,-0.14 4.29,-0.17 1.48,-0.03 2.88,0 4.24,0 a 32.94,32.94 0 0 1 11.37,1.65 12.16,12.16 0 0 1 6.54,5.39 q 2.11,3.74 2.12,10.1 V 696 Z"
         id="path14-5" /><path
         class="cls-1"
         d="m 624.42,695.91 v -45.32 h 6.45 V 670 h -1 a 31.14,31.14 0 0 1 1.82,-11.33 14.41,14.41 0 0 1 5.56,-7 17,17 0 0 1 9.42,-2.42 H 647 q 8.58,0 12.69,5.35 4.11,5.35 4.11,15.4 v 25.89 h -8.15 v -27.56 a 11.89,11.89 0 0 0 -3,-8.45 10.61,10.61 0 0 0 -8.15,-3.18 11.68,11.68 0 0 0 -8.65,3.31 11.92,11.92 0 0 0 -3.32,8.83 v 27.07 z"
         id="path15-2" /><path
         class="cls-1"
         d="m 697.66,697.44 a 22,22 0 0 1 -8.91,-1.79 21.1,21.1 0 0 1 -7.09,-5 23.23,23.23 0 0 1 -4.67,-7.47 25.1,25.1 0 0 1 -1.65,-9.17 v -1.52 a 25.27,25.27 0 0 1 1.66,-9.09 23.43,23.43 0 0 1 4.54,-7.47 20.82,20.82 0 0 1 7,-5 21.42,21.42 0 0 1 9,-1.83 20.5,20.5 0 0 1 9.42,2.16 17.17,17.17 0 0 1 6.95,6.75 c 1.82,3.06 2.83,7 3.06,11.88 l -3.39,-5.43 V 634 h 8.14 v 62 h -6.45 v -20.2 h 2.38 c -0.23,5.14 -1.3,9.32 -3.23,12.51 a 17.56,17.56 0 0 1 -7.25,7 20.91,20.91 0 0 1 -9.51,2.13 z m 1.1,-7.13 a 15.38,15.38 0 0 0 7.56,-1.87 14,14 0 0 0 5.43,-5.39 16.22,16.22 0 0 0 2,-8.27 v -3.91 a 14.52,14.52 0 0 0 -2.07,-7.93 13.87,13.87 0 0 0 -5.52,-5 16.4,16.4 0 0 0 -7.51,-1.74 14.84,14.84 0 0 0 -7.94,2.12 14.33,14.33 0 0 0 -5.34,5.94 21.94,21.94 0 0 0 0,18 14.22,14.22 0 0 0 5.43,5.94 15,15 0 0 0 7.96,2.11 z"
         id="path16-5" /><path
         class="cls-1"
         d="m 737.21,695.91 v -45.32 h 6.45 v 18.67 h -0.34 q 0,-9.93 4.37,-14.56 c 2.91,-3.08 7.29,-4.62 13.11,-4.62 h 1.53 v 7.3 h -2.88 q -6.8,0 -10.44,3.6 -3.64,3.6 -3.65,10.4 v 24.53 z"
         id="path17-86" /><path
         class="cls-1"
         d="m 784.4,697.1 a 20.45,20.45 0 0 1 -8.79,-1.74 12.88,12.88 0 0 1 -5.68,-5.05 15.2,15.2 0 0 1 -2,-8 14.16,14.16 0 0 1 2.17,-8.06 13.22,13.22 0 0 1 6.32,-4.88 26.93,26.93 0 0 1 10,-1.66 h 12.31 v 6.11 H 786.1 q -4.94,0 -7.56,2.38 a 7.86,7.86 0 0 0 -2.63,6.11 7.59,7.59 0 0 0 2.63,6 q 2.63,2.29 7.56,2.3 a 14.72,14.72 0 0 0 5.51,-1.06 9.66,9.66 0 0 0 4.39,-3.55 12.83,12.83 0 0 0 1.91,-6.92 l 2.21,3.23 a 19.17,19.17 0 0 1 -2.34,8.11 12.52,12.52 0 0 1 -5.26,5 17.75,17.75 0 0 1 -8.12,1.68 z m 14.85,-1.19 v -13.58 h -1.36 v -15.7 c 0,-3.11 -0.8,-5.46 -2.42,-7 -1.62,-1.54 -4,-2.37 -7.08,-2.37 -1.76,0 -3.57,0 -5.43,0.08 l -5.35,0.17 c -1.7,0.06 -3.17,0.15 -4.41,0.26 v -7.13 c 1.24,-0.12 2.55,-0.22 3.94,-0.3 1.39,-0.08 2.81,-0.14 4.29,-0.17 1.48,-0.03 2.88,0 4.24,0 a 32.94,32.94 0 0 1 11.33,1.56 12.16,12.16 0 0 1 6.54,5.39 q 2.11,3.74 2.12,10.1 v 28.69 z"
         id="path18-7" /><path
         class="cls-1"
         d="M 447.12,641.82 V 634 h 14.43 v 7.87 z m 6.28,54.09 V 634 h 8.15 v 62 z"
         id="path19-7" /><path
         class="cls-1"
         d="m 220.55,805.81 -21.47,-62 h 8.57 l 19.26,56.53 -4.07,-2 H 233 l -4.33,2 17.74,-56.53 h 8.31 l -19.94,62 z"
         id="path20-2" /><path
         class="cls-1"
         d="m 275.8,807 a 20.43,20.43 0 0 1 -8.78,-1.74 12.8,12.8 0 0 1 -5.69,-5 15.17,15.17 0 0 1 -2,-8 14.18,14.18 0 0 1 2.16,-8.06 13.22,13.22 0 0 1 6.32,-4.88 27.2,27.2 0 0 1 10,-1.65 h 12.3 v 6.1 H 277.5 c -3.28,0 -5.8,0.8 -7.56,2.38 a 7.88,7.88 0 0 0 -2.63,6.11 7.63,7.63 0 0 0 2.63,6 q 2.64,2.29 7.56,2.29 a 14.61,14.61 0 0 0 5.52,-1.06 9.73,9.73 0 0 0 4.36,-3.56 12.77,12.77 0 0 0 1.91,-6.92 l 2.21,3.22 a 19.27,19.27 0 0 1 -2.33,8.11 12.57,12.57 0 0 1 -5.26,5 17.83,17.83 0 0 1 -8.11,1.66 z m 14.85,-1.19 v -13.58 h -1.36 v -15.7 q 0,-4.66 -2.41,-7 -2.41,-2.34 -7.09,-2.38 c -1.76,0 -3.56,0 -5.43,0.09 l -5.35,0.17 c -1.7,0 -3.17,0.14 -4.41,0.25 v -7.13 c 1.24,-0.11 2.56,-0.21 3.94,-0.3 1.38,-0.09 2.82,-0.14 4.29,-0.17 1.47,-0.03 2.89,0 4.25,0 a 32.72,32.72 0 0 1 11.37,1.66 12.06,12.06 0 0 1 6.55,5.28 q 2.13,3.74 2.12,10.1 v 28.68 z"
         id="path21-29" /><path
         class="cls-1"
         d="m 326.89,807.17 q -8.91,0 -13.79,-3.82 a 13,13 0 0 1 -5.05,-10.44 h 7.64 a 7.48,7.48 0 0 0 2.68,5 c 1.66,1.55 4.51,2.33 8.52,2.33 3.62,0 6.4,-0.72 8.32,-2.16 a 6.46,6.46 0 0 0 2.89,-5.31 5.13,5.13 0 0 0 -2.13,-4.37 q -2.12,-1.57 -6.87,-2.08 l -4.92,-0.51 a 20.18,20.18 0 0 1 -10.53,-3.86 10.71,10.71 0 0 1 -4.07,-8.95 12.42,12.42 0 0 1 2.21,-7.43 14,14 0 0 1 6.11,-4.75 22.92,22.92 0 0 1 9,-1.66 c 5.09,0 9.23,1.14 12.39,3.4 3.16,2.26 4.81,5.63 4.93,10.1 h -7.64 a 6,6 0 0 0 -2.5,-4.63 q -2.43,-1.9 -7.18,-1.91 -4.75,-0.01 -7.22,1.88 a 6.06,6.06 0 0 0 -2.46,4.93 5.16,5.16 0 0 0 1.78,4.07 q 1.74,1.53 5.73,2 l 4.92,0.51 q 7.29,0.76 11.71,4 a 10.8,10.8 0 0 1 4.41,9.21 12.3,12.3 0 0 1 -2.41,7.51 15.86,15.86 0 0 1 -6.67,5.09 24.45,24.45 0 0 1 -9.8,1.85 z"
         id="path22-4" /><path
         class="cls-1"
         d="m 377,807.34 a 23.42,23.42 0 0 1 -10.15,-2 20.23,20.23 0 0 1 -7.08,-5.47 24,24 0 0 1 -4.2,-7.6 25.71,25.71 0 0 1 -1.4,-8.31 v -1.53 a 26.24,26.24 0 0 1 1.4,-8.49 22.54,22.54 0 0 1 4.24,-7.51 21.29,21.29 0 0 1 7.09,-5.39 22.69,22.69 0 0 1 9.93,-2 23.74,23.74 0 0 1 10.17,2.05 18.21,18.21 0 0 1 7.3,6 17.29,17.29 0 0 1 3.1,9.12 h -7.81 a 11.11,11.11 0 0 0 -3.9,-7.09 q -3.31,-2.83 -8.91,-2.84 a 14,14 0 0 0 -8.07,2.21 13.41,13.41 0 0 0 -4.83,6 23.61,23.61 0 0 0 0,17.19 13.51,13.51 0 0 0 4.88,6.11 14.1,14.1 0 0 0 8.24,2.21 15,15 0 0 0 6.62,-1.36 11.85,11.85 0 0 0 4.49,-3.65 10.46,10.46 0 0 0 2,-5.17 h 7.81 a 16.66,16.66 0 0 1 -3.1,9.25 19,19 0 0 1 -7.47,6.07 24.26,24.26 0 0 1 -10.35,2.2 z"
         id="path23-1" /><path
         class="cls-1"
         d="m 429.84,807.34 a 25.06,25.06 0 0 1 -10.44,-2 23.12,23.12 0 0 1 -7.59,-5.39 22.76,22.76 0 0 1 -4.67,-7.51 23.75,23.75 0 0 1 -1.57,-8.48 v -1.53 a 23.5,23.5 0 0 1 1.61,-8.53 23.09,23.09 0 0 1 4.75,-7.56 23.34,23.34 0 0 1 7.64,-5.34 27.37,27.37 0 0 1 20.54,0 23.34,23.34 0 0 1 7.64,5.34 23.09,23.09 0 0 1 4.75,7.56 23.5,23.5 0 0 1 1.61,8.53 v 1.53 a 24,24 0 0 1 -1.56,8.48 22.92,22.92 0 0 1 -4.67,7.51 23.27,23.27 0 0 1 -7.6,5.39 25.06,25.06 0 0 1 -10.44,2 z m 0,-7.3 a 16.12,16.12 0 0 0 8.7,-2.25 14.91,14.91 0 0 0 5.52,-6.07 18.91,18.91 0 0 0 1.91,-8.57 18.68,18.68 0 0 0 -2,-8.66 14.86,14.86 0 0 0 -5.55,-6 17.82,17.82 0 0 0 -17.19,0 14.77,14.77 0 0 0 -5.6,6 20.15,20.15 0 0 0 -0.05,17.23 14.91,14.91 0 0 0 5.52,6.07 16.14,16.14 0 0 0 8.74,2.21 z"
         id="path24-9" /><path
         class="cls-1"
         d="m 466.34,805.81 v -45.32 h 6.45 v 19.44 h -1 a 30.89,30.89 0 0 1 1.82,-11.33 14.39,14.39 0 0 1 5.56,-7.05 17,17 0 0 1 9.42,-2.42 h 0.34 q 8.58,0 12.69,5.35 4.11,5.35 4.11,15.45 v 25.88 h -8.14 v -27.58 a 11.86,11.86 0 0 0 -3,-8.44 10.58,10.58 0 0 0 -8.15,-3.19 11.71,11.71 0 0 0 -8.66,3.31 12,12 0 0 0 -3.31,8.83 v 27.07 z"
         id="path25-69" /><path
         class="cls-1"
         d="m 540.09,807.34 a 23.34,23.34 0 0 1 -10.14,-2 20.18,20.18 0 0 1 -7.09,-5.47 24,24 0 0 1 -4.2,-7.6 25.71,25.71 0 0 1 -1.4,-8.31 v -1.53 a 26.24,26.24 0 0 1 1.4,-8.49 22.72,22.72 0 0 1 4.24,-7.51 21.29,21.29 0 0 1 7.1,-5.43 22.69,22.69 0 0 1 9.93,-2 23.74,23.74 0 0 1 10.22,2.13 18.21,18.21 0 0 1 7.3,6 17.2,17.2 0 0 1 3.1,9.12 h -7.81 a 11.07,11.07 0 0 0 -3.9,-7.09 q -3.32,-2.83 -8.91,-2.84 a 14,14 0 0 0 -8.07,2.21 13.48,13.48 0 0 0 -4.83,6 23.61,23.61 0 0 0 0,17.19 13.51,13.51 0 0 0 4.88,6.11 14.1,14.1 0 0 0 8.19,2.25 15,15 0 0 0 6.62,-1.36 11.85,11.85 0 0 0 4.48,-3.72 10.46,10.46 0 0 0 2,-5.17 h 7.81 a 16.66,16.66 0 0 1 -3.1,9.25 19.07,19.07 0 0 1 -7.46,6.07 24.34,24.34 0 0 1 -10.36,2.19 z"
         id="path26-8" /><path
         class="cls-1"
         d="m 591.35,807.34 a 23.91,23.91 0 0 1 -10.27,-2 19.58,19.58 0 0 1 -7,-5.39 22.48,22.48 0 0 1 -4,-7.51 28.16,28.16 0 0 1 -1.31,-8.48 v -1.53 a 28.45,28.45 0 0 1 1.31,-8.57 22.62,22.62 0 0 1 4,-7.52 19.53,19.53 0 0 1 6.92,-5.34 22.85,22.85 0 0 1 9.89,-2 q 7.38,0 12.18,3.19 a 19.74,19.74 0 0 1 7.13,8.19 24.9,24.9 0 0 1 2.28,10.62 v 3.65 h -40.23 v -6.11 h 34.29 l -1.86,3.31 a 20.87,20.87 0 0 0 -1.53,-8.36 12,12 0 0 0 -4.59,-5.48 14.08,14.08 0 0 0 -7.72,-1.95 13.77,13.77 0 0 0 -8,2.21 13.23,13.23 0 0 0 -4.75,6 25.22,25.22 0 0 0 0,17.52 13.18,13.18 0 0 0 4.91,6.21 16.95,16.95 0 0 0 17.1,-0.13 9.22,9.22 0 0 0 4,-5.51 h 7.64 a 17.74,17.74 0 0 1 -10.78,13.24 24.69,24.69 0 0 1 -9.61,1.74 z"
         id="path27-2" /><path
         class="cls-1"
         d="m 669.18,807.34 a 25.06,25.06 0 0 1 -10.44,-2 23.27,23.27 0 0 1 -7.6,-5.39 22.92,22.92 0 0 1 -4.67,-7.51 24,24 0 0 1 -1.56,-8.48 v -1.53 a 23.5,23.5 0 0 1 1.61,-8.53 23,23 0 0 1 12.39,-12.9 27.37,27.37 0 0 1 20.54,0 23,23 0 0 1 12.39,12.9 23.71,23.71 0 0 1 1.61,8.53 v 1.53 a 23.75,23.75 0 0 1 -1.57,8.48 22.76,22.76 0 0 1 -4.67,7.51 23.12,23.12 0 0 1 -7.59,5.39 25.06,25.06 0 0 1 -10.44,2 z m 0,-7.3 a 16.14,16.14 0 0 0 8.7,-2.25 14.91,14.91 0 0 0 5.52,-6.07 20.24,20.24 0 0 0 0,-17.23 14.81,14.81 0 0 0 -5.56,-6 17.8,17.8 0 0 0 -17.18,0 14.64,14.64 0 0 0 -5.6,6 18.68,18.68 0 0 0 -2,8.66 18.91,18.91 0 0 0 1.91,8.57 14.84,14.84 0 0 0 5.52,6.07 16.09,16.09 0 0 0 8.69,2.21 z"
         id="path28-5" /><path
         class="cls-1"
         d="m 720.52,807.17 q -8.91,0 -13.79,-3.82 a 13,13 0 0 1 -5.05,-10.44 h 7.64 a 7.52,7.52 0 0 0 2.68,5 c 1.66,1.55 4.51,2.33 8.52,2.33 3.62,0 6.4,-0.72 8.32,-2.16 a 6.44,6.44 0 0 0 2.89,-5.31 5.15,5.15 0 0 0 -2.12,-4.37 q -2.13,-1.57 -6.88,-2.08 l -4.92,-0.51 a 20.11,20.11 0 0 1 -10.52,-3.86 10.69,10.69 0 0 1 -4.08,-8.95 12.49,12.49 0 0 1 2.21,-7.43 14,14 0 0 1 6.11,-4.75 22.92,22.92 0 0 1 9,-1.66 q 7.65,0 12.4,3.4 4.75,3.4 4.92,10.1 h -7.65 a 6,6 0 0 0 -2.5,-4.63 q -2.43,-1.9 -7.18,-1.91 c -3.16,0 -5.57,0.65 -7.21,1.95 a 6.06,6.06 0 0 0 -2.46,4.93 5.16,5.16 0 0 0 1.74,4.07 q 1.74,1.53 5.73,2 l 4.92,0.51 q 7.31,0.76 11.71,4 a 10.81,10.81 0 0 1 4.42,9.21 12.31,12.31 0 0 1 -2.42,7.51 15.82,15.82 0 0 1 -6.66,5.09 24.5,24.5 0 0 1 -9.77,1.78 z"
         id="path29-5" /><path
         class="cls-1"
         d="m 618,751.73 v -7.87 h 14.43 v 7.87 z m 6.28,54.09 v -62 h 8.15 v 62 z"
         id="path30-4" /><path
         class="cls-1"
         d="m 246,525.49 v 7.64 h -15.47 a 25.84,25.84 0 0 0 -10,1.82 21.54,21.54 0 0 0 -12.18,12.61 26.58,26.58 0 0 0 -1.61,9.33 27.06,27.06 0 0 0 1.61,9.55 21.47,21.47 0 0 0 4.71,7.47 20.84,20.84 0 0 0 7.47,4.88 27.46,27.46 0 0 0 10,1.7 H 246 v 7.63 h -14.6 a 37.83,37.83 0 0 1 -14.6,-2.58 29.87,29.87 0 0 1 -10.31,-7 29.32,29.32 0 0 1 -6.15,-9.77 30.78,30.78 0 0 1 -2,-11 V 556 a 30.69,30.69 0 0 1 2,-10.86 29.55,29.55 0 0 1 6.15,-9.85 30.57,30.57 0 0 1 10.31,-7.09 36.7,36.7 0 0 1 14.6,-2.67 z"
         id="path31-9" /><path
         class="cls-1"
         d="M 198.28,888.57 V 860.7 h 3.78 l 8.78,19.3 h 0.69 l 8.75,-19.28 h 3.85 v 27.87 h -2.9 v -24.65 h 0.23 L 213,882.69 h -3.82 L 200.65,864 h 0.31 v 24.63 z"
         id="path32-1" /><path
         class="cls-1"
         d="m 240.63,889.22 a 10.49,10.49 0 0 1 -4.51,-0.9 8.59,8.59 0 0 1 -3.13,-2.41 10.18,10.18 0 0 1 -1.81,-3.37 12.55,12.55 0 0 1 -0.59,-3.86 v -0.53 a 12.43,12.43 0 0 1 0.59,-3.82 9.94,9.94 0 0 1 1.82,-3.33 8.85,8.85 0 0 1 3.08,-2.39 9.76,9.76 0 0 1 4.33,-0.9 9.38,9.38 0 0 1 5.29,1.42 9,9 0 0 1 3.18,3.6 10.57,10.57 0 0 1 1.07,4.72 v 1.49 h -18.07 v -2.22 H 248 l -0.73,1.11 a 9.37,9.37 0 0 0 -0.78,-3.95 6.15,6.15 0 0 0 -2.29,-2.67 6.81,6.81 0 0 0 -3.76,-1 6.61,6.61 0 0 0 -3.93,1.11 6.84,6.84 0 0 0 -2.36,2.94 10.53,10.53 0 0 0 -0.78,4.16 10.93,10.93 0 0 0 0.78,4.19 6.71,6.71 0 0 0 2.41,3 8.18,8.18 0 0 0 8.38,-0.09 4.93,4.93 0 0 0 2,-2.85 h 2.67 a 7.53,7.53 0 0 1 -1.6,3.49 8.11,8.11 0 0 1 -3.1,2.28 10.84,10.84 0 0 1 -4.28,0.78 z"
         id="path33-2" /><path
         class="cls-1"
         d="m 263.73,889.22 a 9.61,9.61 0 0 1 -4,-0.82 9.35,9.35 0 0 1 -3.13,-2.29 10.54,10.54 0 0 1 -2,-3.36 11.28,11.28 0 0 1 -0.71,-4 v -0.54 a 11.44,11.44 0 0 1 0.69,-3.95 10.46,10.46 0 0 1 2,-3.36 9.28,9.28 0 0 1 7.16,-3.19 9,9 0 0 1 4.51,1.11 8.28,8.28 0 0 1 3.13,3.19 10.7,10.7 0 0 1 1.26,5.1 l -1.26,-2.37 v -14 h 2.86 v 27.87 h -2.29 v -9 h 0.92 a 11,11 0 0 1 -1.32,5.32 8.18,8.18 0 0 1 -3.24,3.23 9.45,9.45 0 0 1 -4.58,1.06 z m 0.38,-2.52 a 7.57,7.57 0 0 0 3.72,-0.92 6.6,6.6 0 0 0 2.62,-2.62 7.89,7.89 0 0 0 0.95,-3.91 v -1.83 a 7.32,7.32 0 0 0 -0.95,-3.76 6.8,6.8 0 0 0 -2.62,-2.54 7.67,7.67 0 0 0 -3.76,-0.92 6.94,6.94 0 0 0 -3.91,1.09 7.17,7.17 0 0 0 -2.56,3 10.33,10.33 0 0 0 0,8.48 6.9,6.9 0 0 0 2.6,2.92 7.17,7.17 0 0 0 3.91,1.01 z"
         id="path34-5" /><path
         class="cls-1"
         d="m 279.39,870.66 v -2.29 h 6.06 v 2.29 z m 3.85,-6 a 2,2 0 0 1 -1.55,-0.56 2.15,2.15 0 0 1 0,-2.78 2,2 0 0 1 1.55,-0.56 2,2 0 0 1 1.53,0.56 2.18,2.18 0 0 1 0,2.78 2,2 0 0 1 -1.53,0.53 z m -0.61,23.94 v -20.2 h 2.82 v 20.2 z"
         id="path35-0" /><path
         class="cls-1"
         d="m 301.49,889.22 a 10.27,10.27 0 0 1 -4.45,-0.9 8.86,8.86 0 0 1 -3.15,-2.44 10.94,10.94 0 0 1 -1.89,-3.42 11.8,11.8 0 0 1 -0.63,-3.78 v -0.53 a 11.69,11.69 0 0 1 0.63,-3.8 10.33,10.33 0 0 1 1.89,-3.36 9.13,9.13 0 0 1 3.15,-2.41 10.06,10.06 0 0 1 4.37,-0.9 10.53,10.53 0 0 1 4.49,0.92 8.14,8.14 0 0 1 3.19,2.6 8,8 0 0 1 1.45,4 h -2.75 a 5.7,5.7 0 0 0 -2,-3.49 6.58,6.58 0 0 0 -4.42,-1.4 6.87,6.87 0 0 0 -4,1.09 6.66,6.66 0 0 0 -2.38,2.94 10.27,10.27 0 0 0 -0.81,4.1 10.5,10.5 0 0 0 0.81,4.11 6.81,6.81 0 0 0 2.4,3 6.89,6.89 0 0 0 4.05,1.13 7.43,7.43 0 0 0 3.27,-0.67 6,6 0 0 0 2.25,-1.81 5.12,5.12 0 0 0 1,-2.52 h 2.75 a 7.28,7.28 0 0 1 -1.43,4 8.56,8.56 0 0 1 -3.3,2.63 10.67,10.67 0 0 1 -4.49,0.91 z"
         id="path36-8" /><path
         class="cls-1"
         d="m 313.86,870.66 v -2.29 h 6.07 v 2.29 z m 3.86,-6 a 2,2 0 0 1 -1.55,-0.56 2.15,2.15 0 0 1 0,-2.78 2,2 0 0 1 1.55,-0.56 2,2 0 0 1 1.53,0.56 2.22,2.22 0 0 1 0,2.78 2,2 0 0 1 -1.53,0.53 z m -0.61,23.94 v -20.2 h 2.82 v 20.2 z"
         id="path37-3" /><path
         class="cls-1"
         d="m 327.45,888.57 v -20.2 h 2.29 v 8.48 h -0.45 a 12.46,12.46 0 0 1 0.84,-4.85 6.72,6.72 0 0 1 2.52,-3.13 7.51,7.51 0 0 1 4.24,-1.11 H 337 a 6.79,6.79 0 0 1 5.69,2.39 10.66,10.66 0 0 1 1.87,6.7 v 11.72 h -2.83 v -12.33 a 6.06,6.06 0 0 0 -1.45,-4.24 5.16,5.16 0 0 0 -4,-1.61 5.72,5.72 0 0 0 -4.3,1.67 6,6 0 0 0 -1.62,4.37 v 12.14 z"
         id="path38-9" /><path
         class="cls-1"
         d="m 357.16,889.1 a 8.83,8.83 0 0 1 -3.78,-0.76 5.84,5.84 0 0 1 -2.54,-2.21 6.56,6.56 0 0 1 -0.9,-3.52 6,6 0 0 1 0.94,-3.43 5.79,5.79 0 0 1 2.71,-2.16 11,11 0 0 1 4.29,-0.75 h 5.92 v 2.18 h -6.11 a 5.26,5.26 0 0 0 -3.68,1.17 3.87,3.87 0 0 0 -1.28,3 3.72,3.72 0 0 0 1.34,3 5.39,5.39 0 0 0 3.62,1.13 7.29,7.29 0 0 0 2.71,-0.51 4.75,4.75 0 0 0 2.18,-1.76 6.36,6.36 0 0 0 1,-3.42 l 0.84,1.19 a 8.37,8.37 0 0 1 -1.07,3.76 5.87,5.87 0 0 1 -2.49,2.27 8.22,8.22 0 0 1 -3.7,0.82 z m 6.83,-0.53 v -6.07 h -0.45 v -7.18 a 4.75,4.75 0 0 0 -1.19,-3.46 5,5 0 0 0 -3.66,-1.2 c -0.77,0 -1.54,0 -2.32,0 -0.78,0 -1.51,0.06 -2.21,0.09 l -1.85,0.14 v -2.52 l 1.72,-0.15 c 0.58,-0.06 1.19,-0.08 1.81,-0.1 h 1.82 a 13.48,13.48 0 0 1 5,0.77 5.23,5.23 0 0 1 2.77,2.38 9.14,9.14 0 0 1 0.88,4.3 v 13 z"
         id="path39-3" /><path
         class="cls-1"
         d="m 383,888.68 v -28.1 h 2.9 v 28.1 z m 2.17,-13.51 v -1.91 h 7.15 a 4.94,4.94 0 0 0 3.89,-1.43 5.89,5.89 0 0 0 0,-7.28 5,5 0 0 0 -3.89,-1.41 h -7.15 v -2.56 h 6.65 q 4.32,0 6.45,1.95 a 6.9,6.9 0 0 1 2.14,5.38 v 0.46 a 6.68,6.68 0 0 1 -1.07,3.92 6.05,6.05 0 0 1 -3,2.19 13.38,13.38 0 0 1 -4.52,0.69 z m 0,13.51 v -2.55 h 8.18 a 5.14,5.14 0 0 0 3.87,-1.44 5.21,5.21 0 0 0 -3.87,-9 h -8.18 v -1.91 h 7.76 a 13,13 0 0 1 4.46,0.71 6.38,6.38 0 0 1 3.06,2.23 6.68,6.68 0 0 1 1.11,4 v 0.46 a 7.89,7.89 0 0 1 -1,3.95 6.3,6.3 0 0 1 -2.86,2.62 11.16,11.16 0 0 1 -4.81,0.91 z"
         id="path40-9" /><path
         class="cls-1"
         d="m 405.84,870.66 v -2.29 h 6.07 v 2.29 z m 3.86,-6 a 2,2 0 0 1 -1.55,-0.56 2.15,2.15 0 0 1 0,-2.78 2,2 0 0 1 1.55,-0.56 1.94,1.94 0 0 1 1.52,0.56 2.18,2.18 0 0 1 0,2.78 1.94,1.94 0 0 1 -1.52,0.53 z m -0.61,23.94 v -20.2 h 2.82 v 20.2 z"
         id="path41-6" /><path
         class="cls-1"
         d="m 428.48,889.22 a 10.85,10.85 0 0 1 -4.56,-0.9 9.77,9.77 0 0 1 -3.32,-2.41 10.8,10.8 0 0 1 -2.77,-7.19 v -0.54 a 10.46,10.46 0 0 1 0.73,-3.83 10.27,10.27 0 0 1 5.43,-5.77 10.68,10.68 0 0 1 4.49,-0.9 10.81,10.81 0 0 1 4.53,0.9 10.39,10.39 0 0 1 3.34,2.39 10,10 0 0 1 2.08,3.38 10.85,10.85 0 0 1 0.7,3.83 v 0.54 a 11.19,11.19 0 0 1 -0.68,3.82 10.28,10.28 0 0 1 -2.05,3.37 9.81,9.81 0 0 1 -3.33,2.41 11.06,11.06 0 0 1 -4.59,0.9 z m 0,-2.56 a 7.68,7.68 0 0 0 4.26,-1.13 7.33,7.33 0 0 0 2.65,-3 9.59,9.59 0 0 0 0,-8.24 7.14,7.14 0 0 0 -2.69,-2.94 8.56,8.56 0 0 0 -8.36,0 7.14,7.14 0 0 0 -2.69,2.94 9,9 0 0 0 -0.94,4.14 9.11,9.11 0 0 0 0.92,4.1 7.33,7.33 0 0 0 2.65,3 7.59,7.59 0 0 0 4.2,1.13 z"
         id="path42-7" /><path
         class="cls-1"
         d="m 442.23,863 v -2.3 H 448 v 2.3 z m 2.94,25.54 V 860.7 H 448 v 27.87 z"
         id="path43-9" /><path
         class="cls-1"
         d="m 464.49,889.22 a 10.93,10.93 0 0 1 -4.57,-0.9 9.86,9.86 0 0 1 -3.32,-2.41 10.72,10.72 0 0 1 -2.76,-7.19 v -0.54 a 10.44,10.44 0 0 1 0.72,-3.83 10.33,10.33 0 0 1 5.44,-5.77 11.72,11.72 0 0 1 9,0 10.28,10.28 0 0 1 3.34,2.39 10,10 0 0 1 2.08,3.38 10.64,10.64 0 0 1 0.71,3.83 v 0.54 a 11,11 0 0 1 -0.69,3.82 10.25,10.25 0 0 1 -2,3.37 9.85,9.85 0 0 1 -3.34,2.41 11,11 0 0 1 -4.61,0.9 z m 0,-2.56 a 7.63,7.63 0 0 0 4.25,-1.13 7.36,7.36 0 0 0 2.66,-3 9.59,9.59 0 0 0 0,-8.24 7.2,7.2 0 0 0 -2.69,-2.94 7.77,7.77 0 0 0 -4.2,-1.09 7.66,7.66 0 0 0 -4.16,1.09 7.16,7.16 0 0 0 -2.7,2.94 9.69,9.69 0 0 0 0,8.24 7.36,7.36 0 0 0 2.66,3 7.57,7.57 0 0 0 4.18,1.13 z m -1.57,-21.46 3.32,-7.37 h 3 l -3.89,7.37 z"
         id="path44-9" /><path
         class="cls-1"
         d="m 488.69,896.47 c -0.94,0 -1.89,0 -2.84,-0.13 -0.95,-0.13 -1.86,-0.2 -2.73,-0.33 v -2.44 c 0.91,0.13 1.88,0.24 2.88,0.33 1,0.09 2,0.13 2.85,0.13 a 11.76,11.76 0 0 0 4.62,-0.76 4.71,4.71 0 0 0 2.46,-2.43 10.73,10.73 0 0 0 0.75,-4.37 v -4.05 l 1.07,-2.82 a 10.84,10.84 0 0 1 -1.23,5 8,8 0 0 1 -3.09,3.19 8.8,8.8 0 0 1 -4.43,1.11 9.25,9.25 0 0 1 -3.95,-0.84 9,9 0 0 1 -3,-2.31 10.87,10.87 0 0 1 -1.95,-3.35 11.43,11.43 0 0 1 -0.68,-3.93 v -0.53 a 11.28,11.28 0 0 1 0.68,-3.88 10.42,10.42 0 0 1 1.95,-3.28 9,9 0 0 1 3.08,-2.26 9.77,9.77 0 0 1 4,-0.82 8.91,8.91 0 0 1 4.65,1.19 8.35,8.35 0 0 1 3.12,3.28 11.07,11.07 0 0 1 1.2,4.93 l -0.92,-0.5 v -8.21 h 2.26 v 18 a 13.6,13.6 0 0 1 -1.07,5.84 6.64,6.64 0 0 1 -3.42,3.24 15.75,15.75 0 0 1 -6.26,1 z m 0.81,-10.23 a 7.46,7.46 0 0 0 3.68,-0.9 6.63,6.63 0 0 0 2.58,-2.54 7.48,7.48 0 0 0 0.95,-3.81 v -1.88 a 6.71,6.71 0 0 0 -3.55,-6.1 7.45,7.45 0 0 0 -3.66,-0.88 6.87,6.87 0 0 0 -3.86,1.07 7.05,7.05 0 0 0 -2.52,2.88 10.05,10.05 0 0 0 0,8.27 6.85,6.85 0 0 0 2.54,2.86 7,7 0 0 0 3.84,1.03 z"
         id="path45-7" /><path
         class="cls-1"
         d="m 504.43,870.66 v -2.29 h 6.07 v 2.29 z m 3.85,-6 a 2,2 0 0 1 -1.54,-0.56 2.12,2.12 0 0 1 0,-2.78 2,2 0 0 1 1.54,-0.56 2,2 0 0 1 1.53,0.56 2.18,2.18 0 0 1 0,2.78 2,2 0 0 1 -1.53,0.53 z m -0.61,23.94 v -20.2 h 2.83 v 20.2 z"
         id="path46-6" /><path
         class="cls-1"
         d="m 526.54,889.22 a 10.24,10.24 0 0 1 -4.45,-0.9 8.86,8.86 0 0 1 -3.15,-2.44 10.94,10.94 0 0 1 -1.89,-3.42 11.8,11.8 0 0 1 -0.63,-3.78 v -0.53 a 11.69,11.69 0 0 1 0.63,-3.8 10.33,10.33 0 0 1 1.89,-3.36 9.13,9.13 0 0 1 3.15,-2.41 10,10 0 0 1 4.37,-0.9 10.49,10.49 0 0 1 4.48,0.92 8,8 0 0 1 3.19,2.6 7.87,7.87 0 0 1 1.45,4 h -2.75 a 5.61,5.61 0 0 0 -2,-3.49 6.55,6.55 0 0 0 -4.41,-1.4 6.85,6.85 0 0 0 -4,1.09 6.68,6.68 0 0 0 -2.39,2.94 10.27,10.27 0 0 0 -0.8,4.1 10.49,10.49 0 0 0 0.8,4.11 6.57,6.57 0 0 0 6.46,4.14 7.42,7.42 0 0 0 3.26,-0.67 5.94,5.94 0 0 0 2.25,-1.81 5.12,5.12 0 0 0 1,-2.52 h 2.75 a 7.28,7.28 0 0 1 -1.43,4 8.49,8.49 0 0 1 -3.3,2.63 10.6,10.6 0 0 1 -4.48,0.9 z"
         id="path47-9" /><path
         class="cls-1"
         d="m 546.54,889.1 a 8.86,8.86 0 0 1 -3.78,-0.76 5.84,5.84 0 0 1 -2.54,-2.21 6.56,6.56 0 0 1 -0.9,-3.52 6.09,6.09 0 0 1 0.94,-3.43 5.84,5.84 0 0 1 2.74,-2.18 11,11 0 0 1 4.29,-0.75 h 5.93 v 2.18 h -6.11 a 5.27,5.27 0 0 0 -3.69,1.17 3.9,3.9 0 0 0 -1.28,3 3.75,3.75 0 0 0 1.34,3 5.4,5.4 0 0 0 3.63,1.13 7.28,7.28 0 0 0 2.7,-0.51 4.75,4.75 0 0 0 2.18,-1.76 6.19,6.19 0 0 0 1,-3.42 l 0.84,1.19 a 8.24,8.24 0 0 1 -1.07,3.76 5.9,5.9 0 0 1 -2.48,2.27 8.3,8.3 0 0 1 -3.74,0.84 z m 6.83,-0.53 v -6.07 h -0.45 v -7.18 a 4.79,4.79 0 0 0 -1.18,-3.46 5,5 0 0 0 -3.67,-1.2 c -0.76,0 -1.53,0 -2.31,0 -0.78,0 -1.52,0.06 -2.22,0.09 l -1.85,0.14 v -2.52 l 1.72,-0.15 c 0.58,-0.06 1.19,-0.08 1.81,-0.1 h 1.82 a 13.48,13.48 0 0 1 5,0.77 5.23,5.23 0 0 1 2.77,2.38 9.14,9.14 0 0 1 0.88,4.3 v 13 z"
         id="path48-3" /><path
         class="cls-1"
         d="m 580.14,889.22 a 10.44,10.44 0 0 1 -4.5,-0.9 8.51,8.51 0 0 1 -3.13,-2.41 10,10 0 0 1 -1.82,-3.37 12.86,12.86 0 0 1 -0.59,-3.86 v -0.53 a 12.74,12.74 0 0 1 0.59,-3.82 9.79,9.79 0 0 1 1.82,-3.36 8.81,8.81 0 0 1 3.07,-2.39 9.76,9.76 0 0 1 4.33,-0.9 9.35,9.35 0 0 1 5.29,1.42 9,9 0 0 1 3.19,3.6 10.71,10.71 0 0 1 1.07,4.72 v 1.49 H 571.4 v -2.22 h 16.07 l -0.72,1.11 a 9.22,9.22 0 0 0 -0.79,-3.95 6.15,6.15 0 0 0 -2.29,-2.67 6.78,6.78 0 0 0 -3.76,-1 6.61,6.61 0 0 0 -3.93,1.11 6.82,6.82 0 0 0 -2.35,2.94 10.53,10.53 0 0 0 -0.78,4.16 10.93,10.93 0 0 0 0.78,4.19 6.58,6.58 0 0 0 2.41,3 8.18,8.18 0 0 0 8.38,-0.09 4.92,4.92 0 0 0 2,-2.85 h 2.67 a 7.53,7.53 0 0 1 -1.6,3.49 8.08,8.08 0 0 1 -3.09,2.28 10.85,10.85 0 0 1 -4.26,0.81 z"
         id="path49-5" /><path
         class="cls-1"
         d="M 604.58,888.57 V 860.7 h 2.9 v 27.87 z"
         id="path50-7" /><path
         class="cls-1"
         d="m 615.61,888.57 v -20.2 h 2.29 v 8.48 h -0.46 a 12.64,12.64 0 0 1 0.84,-4.85 6.85,6.85 0 0 1 2.52,-3.13 7.57,7.57 0 0 1 4.25,-1.11 h 0.11 a 6.8,6.8 0 0 1 5.69,2.39 10.66,10.66 0 0 1 1.87,6.7 v 11.72 h -2.83 v -12.33 a 6.06,6.06 0 0 0 -1.45,-4.24 5.16,5.16 0 0 0 -4.05,-1.61 5.72,5.72 0 0 0 -4.29,1.67 6,6 0 0 0 -1.62,4.37 v 12.14 z"
         id="path51-6" /><path
         class="cls-1"
         d="m 636.73,870.55 v -2.18 h 13.67 v 2.18 z m 10.46,18.25 a 9.92,9.92 0 0 1 -3.63,-0.61 4.71,4.71 0 0 1 -2.37,-2.08 8,8 0 0 1 -0.84,-4 V 862 h 2.75 v 20.58 a 3.6,3.6 0 0 0 1,2.7 3.71,3.71 0 0 0 2.71,0.93 h 3.63 v 2.6 z"
         id="path52-6" /><path
         class="cls-1"
         d="m 664.18,889.22 a 10.44,10.44 0 0 1 -4.5,-0.9 8.51,8.51 0 0 1 -3.13,-2.41 10.2,10.2 0 0 1 -1.82,-3.37 12.86,12.86 0 0 1 -0.59,-3.86 v -0.53 a 12.74,12.74 0 0 1 0.59,-3.82 10,10 0 0 1 1.82,-3.36 8.81,8.81 0 0 1 3.07,-2.39 9.79,9.79 0 0 1 4.33,-0.9 9.33,9.33 0 0 1 5.29,1.42 9,9 0 0 1 3.19,3.6 10.71,10.71 0 0 1 1.07,4.72 v 1.49 h -18.06 v -2.22 h 16.07 l -0.72,1.11 a 9.22,9.22 0 0 0 -0.79,-3.95 6.15,6.15 0 0 0 -2.29,-2.67 6.76,6.76 0 0 0 -3.76,-1 6.61,6.61 0 0 0 -3.93,1.11 6.82,6.82 0 0 0 -2.35,2.94 10.53,10.53 0 0 0 -0.78,4.16 10.93,10.93 0 0 0 0.78,4.19 6.58,6.58 0 0 0 2.41,3 8.18,8.18 0 0 0 8.38,-0.09 4.92,4.92 0 0 0 2,-2.85 h 2.68 a 7.64,7.64 0 0 1 -1.61,3.49 8.08,8.08 0 0 1 -3.09,2.28 10.85,10.85 0 0 1 -4.26,0.81 z"
         id="path53-5" /><path
         class="cls-1"
         d="m 686.71,896.47 c -0.94,0 -1.89,0 -2.84,-0.13 -0.95,-0.13 -1.87,-0.2 -2.73,-0.33 v -2.44 q 1.36,0.2 2.88,0.33 c 1,0.09 2,0.13 2.84,0.13 a 11.69,11.69 0 0 0 4.62,-0.76 4.69,4.69 0 0 0 2.47,-2.43 10.91,10.91 0 0 0 0.74,-4.37 v -4.05 l 1.07,-2.82 a 10.84,10.84 0 0 1 -1.22,5 8,8 0 0 1 -3.09,3.19 8.8,8.8 0 0 1 -4.43,1.11 9.33,9.33 0 0 1 -4,-0.84 9.06,9.06 0 0 1 -3,-2.31 10.87,10.87 0 0 1 -1.95,-3.35 11.2,11.2 0 0 1 -0.68,-3.93 v -0.53 a 11,11 0 0 1 0.68,-3.88 10.42,10.42 0 0 1 1.95,-3.28 8.92,8.92 0 0 1 3.07,-2.26 9.77,9.77 0 0 1 4,-0.82 9,9 0 0 1 4.66,1.19 8.33,8.33 0 0 1 3.11,3.28 11.07,11.07 0 0 1 1.21,4.93 l -0.92,-0.5 v -8.21 h 2.25 v 18 a 13.6,13.6 0 0 1 -1.07,5.84 6.57,6.57 0 0 1 -3.42,3.24 15.66,15.66 0 0 1 -6.2,1 z m 0.8,-10.23 a 7.5,7.5 0 0 0 3.69,-0.9 6.54,6.54 0 0 0 2.57,-2.54 7.39,7.39 0 0 0 1,-3.81 v -1.88 a 6.75,6.75 0 0 0 -3.55,-6.1 7.46,7.46 0 0 0 -3.67,-0.88 6.83,6.83 0 0 0 -3.85,1.07 6.91,6.91 0 0 0 -2.52,2.88 9.24,9.24 0 0 0 -0.88,4.1 9.49,9.49 0 0 0 0.89,4.17 6.92,6.92 0 0 0 2.54,2.86 7,7 0 0 0 3.78,1.03 z"
         id="path54-8" /><path
         class="cls-1"
         d="m 704.62,888.57 v -20.2 h 2.29 v 8.44 h -0.23 q 0,-4.42 2,-6.55 c 1.3,-1.41 3.33,-2.12 6.11,-2.12 h 0.65 v 2.6 h -1.24 a 6.83,6.83 0 0 0 -5,1.7 6.72,6.72 0 0 0 -1.72,5 v 11.15 z"
         id="path55-2" /><path
         class="cls-1"
         d="m 725.39,889.1 a 8.83,8.83 0 0 1 -3.78,-0.76 5.78,5.78 0 0 1 -2.54,-2.21 6.56,6.56 0 0 1 -0.9,-3.52 6,6 0 0 1 0.94,-3.43 5.79,5.79 0 0 1 2.71,-2.16 11,11 0 0 1 4.29,-0.75 H 732 v 2.18 h -6.11 a 5.26,5.26 0 0 0 -3.68,1.17 3.87,3.87 0 0 0 -1.28,3 3.72,3.72 0 0 0 1.34,3 5.39,5.39 0 0 0 3.62,1.13 7.29,7.29 0 0 0 2.71,-0.51 4.75,4.75 0 0 0 2.18,-1.76 6.36,6.36 0 0 0 1,-3.42 l 0.84,1.19 a 8.37,8.37 0 0 1 -1.07,3.76 5.87,5.87 0 0 1 -2.49,2.27 8.22,8.22 0 0 1 -3.67,0.82 z m 6.83,-0.53 v -6.07 h -0.45 v -7.18 a 4.75,4.75 0 0 0 -1.19,-3.46 5,5 0 0 0 -3.66,-1.2 c -0.77,0 -1.54,0 -2.32,0 -0.78,0 -1.51,0.06 -2.21,0.09 l -1.85,0.14 v -2.52 l 1.72,-0.15 c 0.58,-0.06 1.19,-0.08 1.81,-0.1 h 1.82 a 13.48,13.48 0 0 1 5,0.77 5.23,5.23 0 0 1 2.77,2.38 9.14,9.14 0 0 1 0.88,4.3 v 13 z"
         id="path56-5" /><path
         class="cls-1"
         d="m 738.52,870.55 v -2.18 h 13.67 v 2.18 z M 749,888.8 a 9.83,9.83 0 0 1 -3.62,-0.61 4.67,4.67 0 0 1 -2.37,-2.08 8,8 0 0 1 -0.84,-4 V 862 h 2.75 v 20.58 a 3.64,3.64 0 0 0 1,2.7 3.75,3.75 0 0 0 2.72,0.93 h 3.62 v 2.6 z"
         id="path57-4" /><path
         class="cls-1"
         d="m 755.55,870.66 v -2.29 h 6.07 v 2.29 z m 3.86,-6 a 2,2 0 0 1 -1.55,-0.56 2.15,2.15 0 0 1 0,-2.78 2,2 0 0 1 1.55,-0.56 2,2 0 0 1 1.53,0.56 2.22,2.22 0 0 1 0,2.78 2,2 0 0 1 -1.53,0.53 z m -0.61,23.94 v -20.2 h 2.82 v 20.2 z"
         id="path58-4" /><path
         class="cls-1"
         d="m 773.65,888.57 -7.1,-20.2 h 2.94 l 7,20.2 z m 0.76,0 v -2.33 H 778 v 2.33 z m 1.57,0 6.15,-20.2 H 785 l -6.26,20.2 z"
         id="path59-1" /><path
         class="cls-1"
         d="m 795.37,889.1 a 8.81,8.81 0 0 1 -3.77,-0.76 5.73,5.73 0 0 1 -2.54,-2.21 6.56,6.56 0 0 1 -0.9,-3.52 6,6 0 0 1 0.94,-3.43 5.81,5.81 0 0 1 2.7,-2.16 11.07,11.07 0 0 1 4.3,-0.75 h 5.9 v 2.18 h -6.11 a 5.26,5.26 0 0 0 -3.68,1.17 3.87,3.87 0 0 0 -1.29,3 3.75,3.75 0 0 0 1.34,3 5.4,5.4 0 0 0 3.63,1.13 7.37,7.37 0 0 0 2.71,-0.51 4.8,4.8 0 0 0 2.18,-1.76 6.28,6.28 0 0 0 1,-3.42 l 0.84,1.19 a 8.24,8.24 0 0 1 -1.07,3.76 5.84,5.84 0 0 1 -2.48,2.27 8.24,8.24 0 0 1 -3.7,0.82 z m 6.84,-0.53 v -6.07 h -0.46 v -7.18 a 4.74,4.74 0 0 0 -1.18,-3.46 5,5 0 0 0 -3.67,-1.2 c -0.76,0 -1.53,0 -2.31,0 -0.78,0 -1.51,0.06 -2.21,0.09 l -1.85,0.14 v -2.52 l 1.71,-0.15 c 0.59,-0.06 1.2,-0.08 1.82,-0.1 h 1.81 a 13.58,13.58 0 0 1 5,0.77 5.21,5.21 0 0 1 2.76,2.38 9,9 0 0 1 0.88,4.3 v 13 z"
         id="path60-6" /><path
         class="cls-1"
         d="m 335,186.62 a 139.84,139.84 0 0 0 -51.7,9.86 c -18.08,7.18 -22.33,29.7 -35.85,43.26 -13.52,13.56 -36.35,18.2 -43.45,36.33 a 139.75,139.75 0 0 0 -9.67,51.21 C 194.3,404.85 257.4,468 335,468 h 38.85 a 45.59,45.59 0 0 0 45.59,-45.6 V 411.78 H 430 a 45.59,45.59 0 0 0 45.59,-45.59 V 327.28 C 475.63,249.72 412.53,186.62 335,186.62 Z m 84.4,225.15 h -84.44 a 84.44,84.44 0 1 1 84.44,-84.44 z"
         id="path61-1" /><path
         class="cls-1"
         d="M 418.56,103.53 A 84.45,84.45 0 0 1 339.27,176 c 1.66,-39.59 35.92,-70.89 79.29,-72.47 z"
         id="path62-6" /><path
         class="cls-1"
         d="m 285.6,131.52 c 24,0 43.49,19.35 45.19,44.44 h -1.47 a 84.29,84.29 0 0 1 -60.74,-32.09 c -1.63,-2.17 -3.17,-4.42 -4.59,-6.76 6.01,-2.95 15.01,-5.59 21.61,-5.59 z"
         id="path63-3" /></g></g></svg>
